<svg width="3600" height="1800" xmlns="http://www.w3.org/2000/svg"><rect width="3600" height="1800" style="fill:none;" /><g id="Continents"><polygon points="1556.9976382461775 169.20789387186616 1850.07722276688 417.8935616631381 1850.07722276688 417.8935616631381 1835.8386841833283 441.048075554098 1835.8386841833283 441.048075554098 1849.1476400138592 417.5203049174357 1849.1476400138592 417.5203049174357 2271.9706573163257 442.2548730936552 2271.9706573163257 442.2548730936552 2554.534818128338 171.69205488373834 2554.534818128338 171.69205488373834 1556.9976382461775 169.20789387186616 1556.9976382461775 169.20789387186616" id="Continent 300" style="fill:#ff3388" /><polygon points="1437.9434888877927 777.3931992887252 1710.5512500025911 906.9260456920523 1710.5512500025911 906.9260456920523 1565.3697995647099 1172.6003776101045 1565.3697995647099 1172.6003776101045 1498.9626515099553 971.1388525521661 1498.9626515099553 971.1388525521661 1437.9434888877927 777.3931992887252 1437.9434888877927 777.3931992887252" id="Continent 200" style="fill:#ff3388" /><polygon points="1969.5842532643996 1401.3634988567574 1844.193876845849 1281.4259306140227 1844.193876845849 1281.4259306140227 1794.0366796550868 1305.0966278749877 1794.0366796550868 1305.0966278749877 1839.5522024652266 1275.6728597712995 1839.5522024652266 1275.6728597712995 1670.8009145179474 989.7947486709868 1670.8009145179474 989.7947486709868 1875.1772497650484 985.7950737453411 1875.1772497650484 985.7950737453411 1914.3832019397873 1058.8015192463592 1914.3832019397873 1058.8015192463592 1969.5842532643996 1401.3634988567574 1969.5842532643996 1401.3634988567574" id="subcontinent" style="fill:#ff3388" /><polygon points="2081.0858825721957 1355.8197671372122 1761.1787665245856 826.8554090663492 1761.1787665245856 826.8554090663492 1338.5666550885135 318.29572729582094 1338.5666550885135 318.29572729582094 1350.8533758588035 310.1692768924777 1350.8533758588035 310.1692768924777 1786.648438985971 759.6473074300234 1786.648438985971 759.6473074300234 2091.270092095416 1342.3006005694344 2091.270092095416 1342.3006005694344 2083.0420085197366 1354.8245906519846 2083.0420085197366 1354.8245906519846 2081.0858825721957 1355.8197671372122 2081.0858825721957 1355.8197671372122" id="marker" style="fill:#ff3388" /><polygon points="2050.0474326784642 745.3692547658385 1875.68556470264 989.1978706265675 1875.68556470264 989.1978706265675 1950.347228974268 1043.4959411918405 1950.347228974268 1043.4959411918405 1982.1960729871516 947.9594779038493 1982.1960729871516 947.9594779038493 2007.9487197873682 954.5481293872818 2007.9487197873682 954.5481293872818 1984.4521358922395 941.0148746256684 1984.4521358922395 941.0148746256684 2047.8219642141612 748.1523483595789 2047.8219642141612 748.1523483595789 2050.0474326784642 745.3692547658385 2050.0474326784642 745.3692547658385" id="marker1" style="fill:#ff3388" /><polygon points="1805.117513622025 733.4631434090346 1810.223177630447 731.3526572243563 1810.223177630447 731.3526572243563 1811.8533918865755 726.3945161245126 1811.8533918865755 726.3945161245126 1812.21135882613 721.9579571157878 1812.21135882613 721.9579571157878 1811.6689972523777 717.1713246947121 1811.6689972523777 717.1713246947121 1811.3918391841491 712.9876086896212 1811.3918391841491 712.9876086896212 1816.1935576037538 708.1673133124604 1816.1935576037538 708.1673133124604 1820.3674368164845 707.1948329807566 1820.3674368164845 707.1948329807566 1844.9447223321251 756.3572822952854 1844.9447223321251 756.3572822952854 1860.003392368249 789.9630128638852 1860.003392368249 789.9630128638852 1873.3982989590136 791.7300049053549 1873.3982989590136 791.7300049053549 1883.6456231693276 791.2613843540976 1883.6456231693276 791.2613843540976 1889.4372012669728 789.0265137513903 1889.4372012669728 789.0265137513903 1893.043985339753 790.4616919998036 1893.043985339753 790.4616919998036 1892.3915608946581 794.234945814861 1892.3915608946581 794.234945814861 1824.2527100497387 820.9534745751057 1824.2527100497387 820.9534745751057 1822.9217490676697 817.9472490132906 1822.9217490676697 817.9472490132906 1829.0858406813948 815.364496219421 1829.0858406813948 815.364496219421 1834.4786674360228 810.985914216636 1834.4786674360228 810.985914216636 1838.750946806142 805.6664463261418 1838.750946806142 805.6664463261418 1844.0414884915745 799.2376789040354 1844.0414884915745 799.2376789040354 1845.135579652555 796.6632809916797 1845.135579652555 796.6632809916797 1818.9766671099105 734.1839794800353 1818.9766671099105 734.1839794800353 1808.8715833250465 736.9108331467339 1808.8715833250465 736.9108331467339 1806.0182944722237 733.8047566237532 1806.0182944722237 733.8047566237532 1805.117513622025 733.4631434090346 1805.117513622025 733.4631434090346" id="i am a detail" style="fill:#ff3388" /><polygon points="1795.8077327345507 680.4535627219348 1794.3970290968798 686.1082138557438 1794.3970290968798 686.1082138557438 1795.8826191230787 691.2862215757865 1795.8826191230787 691.2862215757865 1799.5849203897021 696.2620897212872 1799.5849203897021 696.2620897212872 1806.6672755880572 701.9999155978205 1806.6672755880572 701.9999155978205 1810.190097709609 701.2810750350205 1810.190097709609 701.2810750350205 1814.767981240316 699.4223841623423 1814.767981240316 699.4223841623423 1817.009789367507 695.644509706798 1817.009789367507 695.644509706798 1814.9287576124739 690.7332137983165 1814.9287576124739 690.7332137983165 1812.0430617932766 687.5780437751808 1812.0430617932766 687.5780437751808 1807.8286583948423 684.9566217939508 1807.8286583948423 684.9566217939508 1803.8695972486469 682.9525856176144 1803.8695972486469 682.9525856176144 1800.5639191337905 680.6813642850426 1800.5639191337905 680.6813642850426 1797.0009971216361 681.41446887892 1797.0009971216361 681.41446887892 1795.8077327345507 680.4535627219348 1795.8077327345507 680.4535627219348" id="i am a detail" style="fill:#ff3388" /><polygon points="1898.1723462768327 681.6645004749025 1894.8948071214065 687.4710769732931 1894.8948071214065 687.4710769732931 1895.370063063244 694.5248522598423 1895.370063063244 694.5248522598423 1900.2093722839359 701.0821920765533 1900.2093722839359 701.0821920765533 1906.1804900318928 699.1746001022312 1906.1804900318928 699.1746001022312 1906.8549247393003 697.4321797310448 1906.8549247393003 697.4321797310448 1908.8424128878535 693.6705029389586 1908.8424128878535 693.6705029389586 1911.6192900583872 685.2314453138044 1911.6192900583872 685.2314453138044 1910.2334761221232 679.3143755358469 1910.2334761221232 679.3143755358469 1911.0171642266864 674.6290087753301 1911.0171642266864 674.6290087753301 1912.3530520005284 672.6058087147424 1912.3530520005284 672.6058087147424 1924.0569368660767 666.1909729896961 1924.0569368660767 666.1909729896961 1930.2103004468913 664.3417290597479 1930.2103004468913 664.3417290597479 1933.4026112879083 664.4603201927978 1933.4026112879083 664.4603201927978 1935.5766786412667 665.7238646741399 1935.5766786412667 665.7238646741399 1943.9524976530527 670.1950293875938 1943.9524976530527 670.1950293875938 1947.3515844521705 677.4145808456223 1947.3515844521705 677.4145808456223 1949.0407522030307 681.0230664608924 1949.0407522030307 681.0230664608924 1950.0760600569718 684.8950375512604 1950.0760600569718 684.8950375512604 1944.225994202462 693.7435375194634 1944.225994202462 693.7435375194634 1925.7764394968851 707.9809671569693 1925.7764394968851 707.9809671569693 1919.598893418862 715.6852880018932 1919.598893418862 715.6852880018932 1918.297595783396 734.9744115367503 1918.297595783396 734.9744115367503 1922.078273895514 757.072223716775 1922.078273895514 757.072223716775 1932.078149294919 764.1849445953391 1932.078149294919 764.1849445953391 1943.7218195231776 767.0236334622376 1943.7218195231776 767.0236334622376 1961.555360112332 760.859980681172 1961.555360112332 760.859980681172 1975.5134331591992 750.7972993274464 1975.5134331591992 750.7972993274464 1980.3761484820304 741.7074760402027 1980.3761484820304 741.7074760402027 1981.7643081713877 734.7544639353057 1981.7643081713877 734.7544639353057 1980.16019674974 731.1351585313682 1980.16019674974 731.1351585313682 1977.6980171814048 735.677263117471 1977.6980171814048 735.677263117471 1961.8321058468575 750.0210617282808 1961.8321058468575 750.0210617282808 1952.5027267299947 753.9418738714571 1952.5027267299947 753.9418738714571 1945.826182714279 753.9186305575722 1945.826182714279 753.9186305575722 1941.350734652757 752.2528002538292 1941.350734652757 752.2528002538292 1937.6157784463544 747.4040322236203 1937.6157784463544 747.4040322236203 1936.4574531017643 732.1208496479139 1936.4574531017643 732.1208496479139 1954.6077127051954 714.4721386894345 1954.6077127051954 714.4721386894345 1963.0787634508863 703.1669433159163 1963.0787634508863 703.1669433159163 1965.3966289700697 696.5352967739616 1965.3966289700697 696.5352967739616 1988.3560482195617 746.3259682691074 1988.3560482195617 746.3259682691074 1987.4296616192378 750.9600798468263 1987.4296616192378 750.9600798468263 1998.4284188107445 747.3091845448871 1998.4284188107445 747.3091845448871 1999.8044694061534 745.3524253765942 1999.8044694061534 745.3524253765942 1993.4664528360763 739.3335014435982 1993.4664528360763 739.3335014435982 1971.6994405434825 683.3531265215927 1971.6994405434825 683.3531265215927 1959.957172410053 655.8774119031375 1959.957172410053 655.8774119031375 1948.9739933166306 650.917267138497 1948.9739933166306 650.917267138497 1923.4874301030932 657.0224992326383 1923.4874301030932 657.0224992326383 1913.3001498939834 663.4977318760405 1913.3001498939834 663.4977318760405 1908.418341036087 666.3123954716042 1908.418341036087 666.3123954716042 1899.4476640845758 681.1047228756648 1899.4476640845758 681.1047228756648 1898.1723462768327 681.6645004749025 1898.1723462768327 681.6645004749025" id="i am a detail" style="fill:#ff3388" /><polygon points="1968.0476026308872 652.363735372059 1974.1713952271243 647.3637539385282 1974.1713952271243 647.3637539385282 1977.0830204733832 642.3841300619046 1977.0830204733832 642.3841300619046 1976.4213856341116 638.2848338385138 1976.4213856341116 638.2848338385138 1980.9983837374625 634.7751045659135 1980.9983837374625 634.7751045659135 1985.5936436846434 632.7429282765884 1985.5936436846434 632.7429282765884 1993.809965463756 631.3445963080311 1993.809965463756 631.3445963080311 1998.3449464405887 635.2086187586467 1998.3449464405887 635.2086187586467 2000.5609869674136 639.341275946884 2000.5609869674136 639.341275946884 2009.6647618439013 627.4917379598828 2009.6647618439013 627.4917379598828 2017.4161618940616 622.0998747098707 2017.4161618940616 622.0998747098707 2025.1858468259074 618.2096065385293 2025.1858468259074 618.2096065385293 2039.8964332545609 616.6710482861264 2039.8964332545609 616.6710482861264 2044.0304259539391 620.0721227617755 2044.0304259539391 620.0721227617755 2046.4886259923412 623.4088058429652 2046.4886259923412 623.4088058429652 2057.804872795865 613.3685033988792 2057.804872795865 613.3685033988792 2064.8251497842907 609.3272361434609 2064.8251497842907 609.3272361434609 2070.7980587483466 606.4279872205325 2070.7980587483466 606.4279872205325 2083.2786011315675 603.3767718607758 2083.2786011315675 603.3767718607758 2096.020929677603 608.1107357031386 2096.020929677603 608.1107357031386 2100.936468991793 615.5643424285065 2100.936468991793 615.5643424285065 2114.4875171604335 648.7881668544928 2114.4875171604335 648.7881668544928 2125.832713631665 690.4684491260584 2125.832713631665 690.4684491260584 2134.392536845431 700.1916358587039 2134.392536845431 700.1916358587039 2142.036876659115 700.4287999180194 2142.036876659115 700.4287999180194 2104.41843192023 712.9452765554755 2104.41843192023 712.9452765554755 2112.9826465335345 704.8609412784913 2112.9826465335345 704.8609412784913 2105.682411623761 680.6605337697292 2105.682411623761 680.6605337697292 2094.1406067703433 652.4002964526062 2094.1406067703433 652.4002964526062 2086.691381482772 630.4052025882414 2086.691381482772 630.4052025882414 2077.694773440633 615.9787528022435 2077.694773440633 615.9787528022435 2069.1985648260807 613.401505900477 2069.1985648260807 613.401505900477 2063.674950723785 615.4434482445567 2063.674950723785 615.4434482445567 2057.38813387543 619.2273152723516 2057.38813387543 619.2273152723516 2054.068219975033 624.0557053789058 2054.068219975033 624.0557053789058 2050.7812736522806 628.8887062217859 2050.7812736522806 628.8887062217859 2078.8192946188465 712.7186178636382 2078.8192946188465 712.7186178636382 2089.088724738741 717.3006881955564 2089.088724738741 717.3006881955564 2095.925937087067 717.5446433609585 2095.925937087067 717.5446433609585 2055.2333844712534 730.1449487910321 2055.2333844712534 730.1449487910321 2064.6428519129477 721.2356986898682 2064.6428519129477 721.2356986898682 2059.2866550027925 706.1971405916028 2059.2866550027925 706.1971405916028 2045.3628677283614 666.752192070202 2045.3628677283614 666.752192070202 2035.853938534297 637.6402120432591 2035.853938534297 637.6402120432591 2028.6730240525194 629.7628333659775 2028.6730240525194 629.7628333659775 2021.8510204931092 627.4998345015141 2021.8510204931092 627.4998345015141 2016.2006367963536 629.1074866046926 2016.2006367963536 629.1074866046926 2010.8398829757914 632.7926407807533 2010.8398829757914 632.7926407807533 2005.3838157387465 642.350619167777 2005.3838157387465 642.350619167777 2004.9758229545491 646.1499486689031 2004.9758229545491 646.1499486689031 2034.4810154354002 727.401740828876 2034.4810154354002 727.401740828876 2043.7610042053038 732.8201033681776 2043.7610042053038 732.8201033681776 2050.7778900671547 733.4569838291947 2050.7778900671547 733.4569838291947 2013.1649207126939 744.1502930605714 2013.1649207126939 744.1502930605714 2017.1640030737935 732.1313836955369 2017.1640030737935 732.1313836955369 2008.76151383536 701.0136246202487 2008.76151383536 701.0136246202487 1992.9287961569732 650.6628459180029 1992.9287961569732 650.6628459180029 1985.880630593165 640.652410147157 1985.880630593165 640.652410147157 1982.2898586406159 642.978514534701 1982.2898586406159 642.978514534701 1978.386939894805 646.1906324789306 1978.386939894805 646.1906324789306 1972.243613996328 651.1739628211703 1972.243613996328 651.1739628211703 1963.510799461849 651.5189894864187 1963.510799461849 651.5189894864187 1953.2768993816517 642.2744424138841 1953.2768993816517 642.2744424138841 1948.5247966937713 635.6180865317442 1948.5247966937713 635.6180865317442 1954.3673666239192 618.8125916000324 1954.3673666239192 618.8125916000324 1958.2941917570665 615.5331327037547 1958.2941917570665 615.5331327037547 1965.959316890042 614.2866327362285 1965.959316890042 614.2866327362285 1973.659697825609 616.012132825552 1973.659697825609 616.012132825552 1975.336518280467 617.47648510578 1975.336518280467 617.47648510578 1975.6817615839159 619.5296264469873 1975.6817615839159 619.5296264469873 1974.0307663087444 620.9984280068948 1974.0307663087444 620.9984280068948 1972.3710734474787 621.0025120914418 1972.3710734474787 621.0025120914418 1970.6959004835755 619.5419190269472 1970.6959004835755 619.5419190269472 1969.0155590888521 618.0828726202868 1969.0155590888521 618.0828726202868 1963.9943315635546 616.6494871702207 1963.9943315635546 616.6494871702207 1961.3479558607594 617.8473120790705 1961.3479558607594 617.8473120790705 1957.700325099067 618.7680871030254 1957.700325099067 618.7680871030254 1956.4160843064053 620.8378304149089 1956.4160843064053 620.8378304149089 1956.2060257233966 626.1187831346608 1956.2060257233966 626.1187831346608 1954.0360109807107 632.3039255806976 1954.0360109807107 632.3039255806976 1957.4722514644432 639.5800154776744 1957.4722514644432 639.5800154776744 1965.0979624643721 648.5785360167432 1965.0979624643721 648.5785360167432 1967.719589297374 651.780281644357 1967.719589297374 651.780281644357 1968.0476026308872 652.363735372059 1968.0476026308872 652.363735372059" id="i am a detail" style="fill:#ff3388" /><polygon points="2181.6552725403594 788.9182497733594 2177.5673787859655 785.2666688600972 2177.5673787859655 785.2666688600972 2170.129946001343 780.8852501013315 2170.129946001343 780.8852501013315 2163.6289231600877 780.1460224283264 2163.6289231600877 780.1460224283264 2158.9937031380387 780.507571872088 2158.9937031380387 780.507571872088 2154.0068984335103 782.5070199673748 2154.0068984335103 782.5070199673748 2147.3997895929615 787.2406774989196 2147.3997895929615 787.2406774989196 2141.4531207986165 797.2420252889776 2141.4531207986165 797.2420252889776 2142.036242924189 811.01958431875 2142.036242924189 811.01958431875 2143.701845487337 823.0036710003493 2143.701845487337 823.0036710003493 2151.097731031672 839.0055672555175 2151.097731031672 839.0055672555175 2160.359926623598 847.5815850691995 2160.359926623598 847.5815850691995 2166.9474431069366 849.0546177046556 2166.9474431069366 849.0546177046556 2171.5029111264566 848.704619981379 2171.5029111264566 848.704619981379 2177.5199249717107 848.008085692407 2177.5199249717107 848.008085692407 2184.813508517736 846.242702536925 2184.813508517736 846.242702536925 2190.4691357618535 844.1140142914172 2190.4691357618535 844.1140142914172 2193.9058717090866 839.4072188107015 2193.9058717090866 839.4072188107015 2185.118363464686 841.4878822153679 2185.118363464686 841.4878822153679 2176.893753920006 842.6941376485728 2176.893753920006 842.6941376485728 2167.718727756528 840.270594752528 2167.718727756528 840.270594752528 2161.948174273935 833.1385304689247 2161.948174273935 833.1385304689247 2158.2766399969337 819.2966476276264 2158.2766399969337 819.2966476276264 2155.733072105277 806.7684991273159 2155.733072105277 806.7684991273159 2154.861317114075 794.6274388312402 2154.861317114075 794.6274388312402 2161.085408883917 788.4639841586613 2161.085408883917 788.4639841586613 2169.0323601751475 785.763679385235 2169.0323601751475 785.763679385235 2174.417595414059 788.3213862108265 2174.417595414059 788.3213862108265 2179.432797669294 792.5189551511828 2179.432797669294 792.5189551511828 2183.1560759117583 800.8846669462389 2183.1560759117583 800.8846669462389 2185.7677227782656 807.9848537438636 2185.7677227782656 807.9848537438636 2196.9060042273845 844.9416116847004 2196.9060042273845 844.9416116847004 2218.6410343103485 841.5607967760816 2218.6410343103485 841.5607967760816 2212.49982125313 835.9259941941644 2212.49982125313 835.9259941941644 2183.928037253919 711.7992902482082 2183.928037253919 711.7992902482082 2192.0252109411385 697.7677840907444 2192.0252109411385 697.7677840907444 2161.8832945400536 705.3553038245872 2161.8832945400536 705.3553038245872 2179.7970225374415 784.7413269372944 2179.7970225374415 784.7413269372944 2181.6552725403594 788.9182497733594 2181.6552725403594 788.9182497733594" id="i am a detail" style="fill:#ff3388" /><polygon points="2255.219871559609 785.763715786866 2238.371591548853 799.233933822266 2238.371591548853 799.233933822266 2235.2870007306446 802.3576976809923 2235.2870007306446 802.3576976809923 2235.8628462003508 804.558880168453 2235.8628462003508 804.558880168453 2238.2476160939127 804.7382726305696 2238.2476160939127 804.7382726305696 2251.391337598812 795.2414622753274 2251.391337598812 795.2414622753274 2258.1830660772475 788.1678837623434 2258.1830660772475 788.1678837623434 2280.3314741142553 769.9549490022507 2280.3314741142553 769.9549490022507 2296.6254298408826 748.8077988449706 2296.6254298408826 748.8077988449706 2297.602680372468 739.4197867508921 2297.602680372468 739.4197867508921 2297.761563215004 733.2714980242688 2297.761563215004 733.2714980242688 2284.143544634313 720.0370643192917 2284.143544634313 720.0370643192917 2275.1071688955426 722.7236867650104 2275.1071688955426 722.7236867650104 2266.8779295608188 725.2884368295893 2266.8779295608188 725.2884368295893 2267.386526302359 730.5385169656656 2267.386526302359 730.5385169656656 2274.6486655433914 727.4136375964486 2274.6486655433914 727.4136375964486 2280.1780829319564 726.9899271086553 2280.1780829319564 726.9899271086553 2286.0503512373202 737.9880811437197 2286.0503512373202 737.9880811437197 2288.1578491318346 746.7378906242711 2288.1578491318346 746.7378906242711 2283.4339694834293 760.0343761178668 2283.4339694834293 760.0343761178668 2276.616223702866 767.6880924828047 2276.616223702866 767.6880924828047 2268.007471607755 774.2571848958435 2268.007471607755 774.2571848958435 2258.5321410839906 767.9403646011153 2258.5321410839906 767.9403646011153 2249.2158079932906 762.4125370991194 2249.2158079932906 762.4125370991194 2238.7836112290324 761.8432628010503 2238.7836112290324 761.8432628010503 2228.392127693124 764.4255477020624 2228.392127693124 764.4255477020624 2217.1450511030444 769.6300459577219 2217.1450511030444 769.6300459577219 2210.42580608091 776.8342706111132 2210.42580608091 776.8342706111132 2207.138942966202 787.8430595291975 2207.138942966202 787.8430595291975 2211.7468758367604 807.7339228785542 2211.7468758367604 807.7339228785542 2214.608795424537 824.2802795406681 2214.608795424537 824.2802795406681 2228.929000045558 831.5284585733632 2228.929000045558 831.5284585733632 2233.372289690806 836.702786288401 2233.372289690806 836.702786288401 2244.0990457928265 836.3227194103499 2244.0990457928265 836.3227194103499 2256.9908768513706 832.3211531769225 2256.9908768513706 832.3211531769225 2266.8212260610376 828.3745587473112 2266.8212260610376 828.3745587473112 2273.558050595761 821.2844709448206 2273.558050595761 821.2844709448206 2277.2059078731213 811.0374223814115 2277.2059078731213 811.0374223814115 2276.283511253968 801.0950840050067 2276.283511253968 801.0950840050067 2276.292641833406 794.8641699107294 2276.292641833406 794.8641699107294 2279.447246647784 791.8242305628223 2279.447246647784 791.8242305628223 2282.234397395967 791.6477900221664 2282.234397395967 791.6477900221664 2282.558799622991 793.0271200813329 2282.558799622991 793.0271200813329 2282.3069894971177 794.052358082841 2282.3069894971177 794.052358082841 2281.316984165572 794.0339456715303 2281.316984165572 794.0339456715303 2280.9747017016834 793.6271138479595 2280.9747017016834 793.6271138479595 2280.147354997187 794.2987553734042 2280.147354997187 794.2987553734042 2281.1199421998977 795.2892377843438 2281.1199421998977 795.2892377843438 2282.3974941029555 795.4846623346908 2282.3974941029555 795.4846623346908 2282.865277249987 795.3790525677522 2282.865277249987 795.3790525677522 2283.9270383891635 794.6554844591224 2283.9270383891635 794.6554844591224 2284.179323094708 793.6303651276965 2284.179323094708 793.6303651276965 2285.115800315204 793.4198462712278 2285.115800315204 793.4198462712278 2286.663163323365 794.7670356747868 2286.663163323365 794.7670356747868 2287.4537663674973 796.0422454672962 2287.4537663674973 796.0422454672962 2287.7223536505408 797.1924303865494 2287.7223536505408 797.1924303865494 2287.055540837009 798.5523179669385 2287.055540837009 798.5523179669385 2285.9760285205484 800.247574680261 2285.9760285205484 800.247574680261 2284.915839453313 800.9705936229263 2284.915839453313 800.9705936229263 2283.748279247612 801.2339893041566 2283.748279247612 801.2339893041566 2281.934936893463 801.8864587750226 2281.934936893463 801.8864587750226 2280.5185087901773 803.1770860427137 2280.5185087901773 803.1770860427137 2280.447947696716 803.9201076232887 2280.447947696716 803.9201076232887 2280.485894967171 805.1232250864467 2280.485894967171 805.1232250864467 2283.5368629786026 806.6120638665058 2283.5368629786026 806.6120638665058 2285.0973632580017 806.9862573393688 2285.0973632580017 806.9862573393688 2286.2630480360153 806.7233142978625 2286.2630480360153 806.7233142978625 2285.6350545467826 806.1379531315237 2285.6350545467826 806.1379531315237 2285.0069159497275 805.5527637824925 2285.0069159497275 805.5527637824925 2285.095976074908 803.8367100924663 2285.095976074908 803.8367100924663 2286.2808796458185 802.6008797063794 2286.2808796458185 802.6008797063794 2288.0416165589263 801.7211093787419 2288.0416165589263 801.7211093787419 2289.0680454495523 799.7963838568255 2289.0680454495523 799.7963838568255 2289.5550976733684 798.7192033850899 2289.5550976733684 798.7192033850899 2289.5210610372737 797.5165014067172 2289.5210610372737 797.5165014067172 2289.2530742927597 796.3661213310207 2289.2530742927597 796.3661213310207 2288.69726032411 795.0380751995444 2288.69726032411 795.0380751995444 2290.7314144093943 795.3106130335245 2290.7314144093943 795.3106130335245 2291.9560676130545 795.2803668767773 2291.9560676130545 795.2803668767773 2293.0742520711237 794.7904133524926 2293.0742520711237 794.7904133524926 2294.13971049762 794.0707884652218 2294.13971049762 794.0707884652218 2295.0244848532993 793.6334886563964 2295.0244848532993 793.6334886563964 2295.962743908114 793.4266405438017 2295.962743908114 793.4266405438017 2296.825785790658 793.9622505952387 2296.825785790658 793.9622505952387 2296.878847719788 794.1924362909969 2296.878847719788 794.1924362909969 2297.1441442954592 795.3434189477903 2297.1441442954592 795.3434189477903 2296.7813745353014 795.907015880688 2296.7813745353014 795.907015880688 2296.3656719503956 796.240473619413 2296.3656719503956 796.240473619413 2295.609426025557 796.1653108589949 2295.609426025557 796.1653108589949 2295.503083017039 795.7049460687956 2295.503083017039 795.7049460687956 2294.9064324789315 796.3205279369025 2294.9064324789315 796.3205279369025 2295.0128693386646 796.7808851318752 2295.0128693386646 796.7808851318752 2295.3535536407926 797.1895146067852 2295.3535536407926 797.1895146067852 2295.8752667189633 797.3162914314635 2295.8752667189633 797.3162914314635 2296.8124704983607 797.1096923215375 2296.8124704983607 797.1096923215375 2297.046808135655 797.0580925872262 2297.046808135655 797.0580925872262 2296.5563675612643 798.1338397878824 2296.5563675612643 798.1338397878824 2295.9069018879177 798.5190545532556 2295.9069018879177 798.5190545532556 2295.2044360500295 798.6742170410877 2295.2044360500295 798.6742170410877 2294.8638242614034 798.2655703173258 2294.8638242614034 798.2655703173258 2294.469896774608 797.6267903793995 2294.469896774608 797.6267903793995 2294.214725503062 798.6511858703229 2294.214725503062 798.6511858703229 2294.3213043387113 799.1115793552682 2294.3213043387113 799.1115793552682 2294.7151856701967 799.7503965571655 2294.7151856701967 799.7503965571655 2295.236507089631 799.8770727008243 2295.236507089631 799.8770727008243 2295.811026719846 800.2340925506858 2295.811026719846 800.2340925506858 2296.694149126068 799.7971751828543 2296.694149126068 799.7971751828543 2296.8535739047647 800.4879661917482 2296.8535739047647 800.4879661917482 2296.491818847789 801.0517758244583 2296.491818847789 801.0517758244583 2295.843089888463 801.4370787966927 2295.843089888463 801.4370787966927 2295.321979338229 801.3102747728642 2295.321979338229 801.3102747728642 2294.8008627161034 801.1835702607409 2294.8008627161034 801.1835702607409 2294.513653680215 801.0051379950174 2294.513653680215 801.0051379950174 2293.81195324957 801.1606797522502 2293.81195324957 801.1606797522502 2293.971979330355 801.8513682129866 2293.971979330355 801.8513682129866 2295.8753081907907 802.6401668228742 2295.8753081907907 802.6401668228742 2294.94000405874 802.8471584317595 2294.94000405874 802.8471584317595 2296.6301184426698 802.715433289418 2296.6301184426698 802.715433289418 2297.33182706127 802.5605909862223 2297.33182706127 802.5605909862223 2297.3425156337535 804.7367582361392 2297.3425156337535 804.7367582361392 2295.0056213990074 805.2536777591137 2295.0056213990074 805.2536777591137 2293.1234754284233 803.4923478006638 2293.1234754284233 803.4923478006638 2292.8564048697995 802.3411700256685 2292.8564048697995 802.3411700256685 2292.716326150946 800.6777470013963 2292.716326150946 800.6777470013963 2292.91719271859 799.4229018099518 2292.91719271859 799.4229018099518 2293.2081389954333 797.5232752435853 2293.2081389954333 797.5232752435853 2293.722212871793 796.3178642752274 2293.722212871793 796.3178642752274 2292.1996915124687 797.2792437209296 2292.1996915124687 797.2792437209296 2291.3898708110046 801.9829498018753 2291.3898708110046 801.9829498018753 2292.1264685545157 804.4714500286135 2292.1264685545157 804.4714500286135 2293.4644268148686 806.8267137255962 2293.4644268148686 806.8267137255962 2295.441801447418 807.1679580215458 2295.441801447418 807.1679580215458 2296.878192287907 806.5378787026266 2296.878192287907 806.5378787026266 2297.979951703949 805.8265278118879 2297.979951703949 805.8265278118879 2299.410579793601 807.2275821354447 2299.410579793601 807.2275821354447 2300.4652273498896 807.8949197149756 2300.4652273498896 807.8949197149756 2300.767823880884 808.7937176187922 2300.767823880884 808.7937176187922 2300.8725139042367 809.253463119061 2300.8725139042367 809.253463119061 2300.977181012852 809.7132154330858 2300.977181012852 809.7132154330858 2301.4866064165644 810.6627387754497 2301.4866064165644 810.6627387754497 2301.7354971931863 810.8973190575402 2301.7354971931863 810.8973190575402 2301.984358357725 811.1319184550691 2301.984358357725 811.1319184550691 2302.2122962166422 811.2745751963448 2302.2122962166422 811.2745751963448 2302.6985474753583 811.2634239667018 2302.6985474753583 811.2634239667018 2303.1848070336823 811.2523410378221 2303.1848070336823 811.2523410378221 2303.6502162459 811.1493562026208 2303.6502162459 811.1493562026208 2303.6807267706863 810.852856504461 2303.6807267706863 810.852856504461 2303.5459091353737 810.6895099170589 2303.5459091353737 810.6895099170589 2302.894267320549 810.8337244149448 2302.894267320549 810.8337244149448 2302.594125065818 810.8036051877898 2302.594125065818 810.8036051877898 2302.024212764116 810.4469332306305 2302.024212764116 810.4469332306305 2301.8684059828206 810.1916950222733 2301.8684059828206 810.1916950222733 2301.691666856247 809.8445092844992 2301.691666856247 809.8445092844992 2301.566174738259 809.2927801300657 2301.566174738259 809.2927801300657 2301.326593779566 808.6697594330565 2301.326593779566 808.6697594330565 2301.2010175319056 808.1180541672363 2301.2010175319056 808.1180541672363 2301.252302433068 807.9134991876266 2301.252302433068 807.9134991876266 2301.1476325070726 807.4537511650748 2301.1476325070726 807.4537511650748 2300.71214899266 807.2605581924171 2300.71214899266 807.2605581924171 2299.9132479932528 806.7617062836018 2299.9132479932528 806.7617062836018 2299.1863196541913 806.1503950545831 2299.1863196541913 806.1503950545831 2298.894951527359 805.7321461412606 2298.894951527359 805.7321461412606 2298.852943390813 805.5482785954537 2298.852943390813 805.5482785954537 2300.8312799296536 805.2056553089232 2300.8312799296536 805.2056553089232 2302.385665878902 805.1512248086045 2302.385665878902 805.1512248086045 2303.6283342149804 804.5868253563224 2303.6283342149804 804.5868253563224 2305.00530806503 803.3173762553537 2305.00530806503 803.3173762553537 2305.4082859637074 802.0697697567215 2305.4082859637074 802.0697697567215 2305.416291278724 799.9434638077448 2305.416291278724 799.9434638077448 2305.2692731410084 798.4307169976074 2305.2692731410084 798.4307169976074 2304.9143049938884 796.8671206801375 2304.9143049938884 796.8671206801375 2304.3928881601605 795.4366755412925 2304.3928881601605 795.4366755412925 2303.269212862539 794.8147435390864 2303.269212862539 794.8147435390864 2302.0839368580732 794.7861918288354 2302.0839368580732 794.7861918288354 2302.812824650773 795.3981406442808 2302.812824650773 795.3981406442808 2303.852682630716 795.6520462329757 2303.852682630716 795.6520462329757 2304.3115951866066 796.8064933641386 2304.3115951866066 796.8064933641386 2304.50087703981 798.5031024262526 2304.50087703981 798.5031024262526 2304.2022046214925 800.210588489184 2304.2022046214925 800.210588489184 2303.7994189606384 801.4582889678295 2303.7994189606384 801.4582889678295 2302.8371621065444 802.8296795511164 2302.8371621065444 802.8296795511164 2301.521660172074 803.5069715343933 2301.521660172074 803.5069715343933 2300.423505419414 803.8469037240245 2300.423505419414 803.8469037240245 2299.1601235338608 804.3206082889444 2299.1601235338608 804.3206082889444 2298.318254451923 803.6381979024462 2298.318254451923 803.6381979024462 2298.1590015251654 802.5141555766351 2298.1590015251654 802.5141555766351 2298.926258419125 802.4402111250797 2298.926258419125 802.4402111250797 2299.5279885246096 802.4998114590092 2299.5279885246096 802.4998114590092 2300.5751585791613 802.3641638500766 2300.5751585791613 802.3641638500766 2301.1139757052974 802.1482042121913 2301.1139757052974 802.1482042121913 2301.44527993485 801.8816699313923 2301.44527993485 801.8816699313923 2301.869963499348 801.5945348863879 2301.869963499348 801.5945348863879 2302.0871073918133 801.2567492767935 2302.0871073918133 801.2567492767935 2302.36712150187 801.194872915873 2302.36712150187 801.194872915873 2302.854764129216 801.1837687891937 2302.854764129216 801.1837687891937 2302.9175380874203 801.4596729918267 2302.9175380874203 801.4596729918267 2303.041454581962 801.142560864437 2303.041454581962 801.142560864437 2302.719561364899 801.0204436922863 2302.719561364899 801.0204436922863 2302.1900051390776 800.8476433915937 2302.1900051390776 800.8476433915937 2301.7442363789323 801.0427697378232 2301.7442363789323 801.0427697378232 2301.3194916102234 801.3299177979056 2301.3194916102234 801.3299177979056 2300.6872076380114 801.566507504656 2300.6872076380114 801.566507504656 2300.013014835659 801.6193262929064 2300.013014835659 801.6193262929064 2299.0379071615716 801.6424943127255 2299.0379071615716 801.6424943127255 2298.3427123798206 801.6037292983497 2298.3427123798206 801.6037292983497 2298.0718882388824 801.2774715647653 2298.0718882388824 801.2774715647653 2298.2858040801643 800.0705214848829 2298.2858040801643 800.0705214848829 2299.5111554618084 800.281528130007 2299.5111554618084 800.281528130007 2300.5380354945087 800.053932663573 2300.5380354945087 800.053932663573 2301.191583219797 799.9092747746819 2301.191583219797 799.9092747746819 2301.667950319028 799.417564268071 2301.667950319028 799.417564268071 2301.97862436305 799.0591475126355 2301.97862436305 799.0591475126355 2302.4761962773814 798.6595243749038 2302.4761962773814 798.6595243749038 2303.0576404123585 798.6278367987978 2303.0576404123585 798.6278367987978 2303.1622950142123 799.0876606111773 2303.1622950142123 799.0876606111773 2303.4425222250384 799.0258831259807 2303.4425222250384 799.0258831259807 2303.4313301980783 798.5454605929071 2303.4313301980783 798.5454605929071 2301.852833155584 798.5074074681426 2301.852833155584 798.5074074681426 2300.4727723663837 798.9091997168689 2300.4727723663837 798.9091997168689 2300.099213099098 798.9919286206181 2300.099213099098 798.9919286206181 2299.6322921985407 799.0954024457637 2299.6322921985407 799.0954024457637 2298.364367996335 798.7004873910003 2298.364367996335 798.7004873910003 2298.081309242571 797.893849856166 2298.081309242571 797.893849856166 2298.23507350184 797.2800356401683 2298.23507350184 797.2800356401683 2299.657627895379 797.061147233531 2299.657627895379 797.061147233531 2301.164380127657 797.2106999819454 2301.164380127657 797.2106999819454 2301.849071446501 796.7696828815851 2301.849071446501 796.7696828815851 2302.118091189118 796.2273876467812 2302.118091189118 796.2273876467812 2300.5080356907174 796.4865037651465 2300.5080356907174 796.4865037651465 2299.9986643230413 796.4060309054463 2299.9986643230413 796.4060309054463 2298.8955765955725 795.8775992977148 2298.8955765955725 795.8775992977148 2298.7388825384182 795.6225270995033 2298.7388825384182 795.6225270995033 2298.4556444615137 794.8158831708215 2298.4556444615137 794.8158831708215 2298.108940824814 793.7334870839203 2298.108940824814 793.7334870839203 2297.68955803834 792.7638128862556 2297.68955803834 792.7638128862556 2297.1763202878146 791.8149659170116 2297.1763202878146 791.8149659170116 2294.573754132947 791.620793855396 2294.573754132947 791.620793855396 2294.748344685574 791.0987282675075 2294.748344685574 791.0987282675075 2295.046534304261 790.2592722675631 2295.046534304261 790.2592722675631 2296.1276577316958 789.8255949541921 2296.1276577316958 789.8255949541921 2296.6772571313727 789.2204297291892 2296.6772571313727 789.2204297291892 2297.6532052651473 788.3276729432389 2297.6532052651473 788.3276729432389 2297.5140830507976 787.2957115223178 2297.5140830507976 787.2957115223178 2297.9918529872 786.8034472289796 2297.9918529872 786.8034472289796 2298.8871483444223 786.4122029039953 2298.8871483444223 786.4122029039953 2299.5131357131904 786.5637344110814 2299.5131357131904 786.5637344110814 2299.972622262135 786.8487137940153 2299.972622262135 786.8487137940153 2300.03590900873 787.1245479813244 2300.03590900873 787.1245479813244 2300.005439019171 787.421071195115 2300.005439019171 787.421071195115 2299.8601470697376 787.6463432184397 2299.8601470697376 787.6463432184397 2299.370374593035 787.6579125260603 2299.370374593035 787.6579125260603 2299.119557398715 787.4235225873467 2299.119557398715 787.4235225873467 2298.8172209861364 787.3937497100101 2298.8172209861364 787.3937497100101 2298.7446182125764 787.5064124371546 2298.7446182125764 787.5064124371546 2298.8080086517634 787.7822187187548 2298.8080086517634 787.7822187187548 2299.152538479243 787.9958653506062 2299.152538479243 787.9958653506062 2299.590733401256 788.1888449331636 2299.590733401256 788.1888449331636 2299.98669771333 788.1979994226404 2299.98669771333 788.1979994226404 2300.3405071439097 788.0233129837198 2300.3405071439097 788.0233129837198 2300.5795539458004 787.7773897957084 2300.5795539458004 787.7773897957084 2300.776507789479 787.3475851936968 2300.776507789479 787.3475851936968 2300.6500735287254 786.7958892098693 2300.6500735287254 786.7958892098693 2300.2938395729516 786.1016526364003 2300.2938395729516 786.1016526364003 2299.3230537189447 785.7362532614677 2299.3230537189447 785.7362532614677 2298.6242303475233 785.69742642852 2298.6242303475233 785.69742642852 2297.8739496682538 785.8633742483233 2297.8739496682538 785.8633742483233 2297.3324853149215 786.0798804004372 2297.3324853149215 786.0798804004372 2296.824561241942 786.8688085451832 2296.824561241942 786.8688085451832 2296.670566258208 787.4827065530206 2296.670566258208 787.4827065530206 2296.71296062551 787.666549613723 2296.71296062551 787.666549613723 2296.2232039317537 787.6786082159093 2296.2232039317537 787.6786082159093 2296.117129570294 787.2190171177072 2296.117129570294 787.2190171177072 2296.0322446522987 786.851344082458 2296.0322446522987 786.851344082458 2295.717374140249 786.341465444766 2295.717374140249 786.341465444766 2294.954853049865 786.0277009414406 2294.954853049865 786.0277009414406 2294.204860200305 786.1945208013901 2294.204860200305 786.1945208013901 2294.1749848488953 786.4911051682769 2294.1749848488953 786.4911051682769 2294.686214081541 786.5706376028897 2294.686214081541 786.5706376028897 2295.4061317679198 786.7005049909772 2295.4061317679198 786.7005049909772 2295.2861805850466 787.8867770069111 2295.2861805850466 787.8867770069111 2294.7153662070077 788.4002885142922 2294.7153662070077 788.4002885142922 2294.1746034845037 788.6173272069536 2294.1746034845037 788.6173272069536 2293.425318337544 788.7843250978068 2293.425318337544 788.7843250978068 2292.4164993132817 789.10612827413 2292.4164993132817 789.10612827413 2291.6164776025716 789.4782522946435 2291.6164776025716 789.4782522946435 2288.615379654471 789.2809035879958 2288.615379654471 789.2809035879958 2284.428029438033 787.0246573776149 2284.428029438033 787.0246573776149 2279.08784199135 785.3301408124827 2279.08784199135 785.3301408124827 2273.103113872915 787.1818722988043 2273.103113872915 787.1818722988043 2269.274259737483 793.8776403147527 2269.274259737483 793.8776403147527 2269.1503426485633 798.5090894714967 2269.1503426485633 798.5090894714967 2268.639359564493 805.6529890863678 2268.639359564493 805.6529890863678 2260.9717627339523 818.8381658550993 2260.9717627339523 818.8381658550993 2245.5034787498207 823.9772809591507 2245.5034787498207 823.9772809591507 2235.999865716968 823.36323602142 2235.999865716968 823.36323602142 2226.1973316563062 807.7817125341276 2226.1973316563062 807.7817125341276 2226.039414157086 799.3156122512814 2226.039414157086 799.3156122512814 2226.209923722485 785.417469826346 2226.209923722485 785.417469826346 2229.052889780313 770.3709427366567 2229.052889780313 770.3709427366567 2232.5295862034322 767.3410145384616 2232.5295862034322 767.3410145384616 2237.729269320835 766.0943890271097 2237.729269320835 766.0943890271097 2241.9245087392683 765.8247583981932 2241.9245087392683 765.8247583981932 2247.2854972807195 770.1475655209355 2247.2854972807195 770.1475655209355 2253.6578738667076 777.6336493445576 2253.6578738667076 777.6336493445576 2255.096524349495 781.4218609572958 2255.096524349495 781.4218609572958 2255.8337155959266 784.4030223466145 2255.8337155959266 784.4030223466145 2255.1784923270015 785.7699143506512 2255.1784923270015 785.7699143506512 2255.219871559609 785.763715786866 2255.219871559609 785.763715786866" id="i am a detail" style="fill:#ff3388" /><polygon points="2249.9656163536856 563.8911593686827 2240.0993921721115 557.5002525175321 2240.0993921721115 557.5002525175321 2227.714800372275 554.5951627932035 2227.714800372275 554.5951627932035 2217.794287106961 555.9901610689135 2217.794287106961 555.9901610689135 2208.979976883744 557.176463554796 2208.979976883744 557.176463554796 2193.645058539857 565.8936639723731 2193.645058539857 565.8936639723731 2188.2939399558963 582.7604116049229 2188.2939399558963 582.7604116049229 2186.711304316512 590.8949489608544 2186.711304316512 590.8949489608544 2187.6253237395413 606.0279634351924 2187.6253237395413 606.0279634351924 2190.879915123589 618.5551684866572 2190.879915123589 618.5551684866572 2196.229184975424 643.8146128785045 2196.229184975424 643.8146128785045 2197.6865794205078 657.6904925413326 2197.6865794205078 657.6904925413326 2191.2016548620227 675.6826273170861 2191.2016548620227 675.6826273170861 2183.6790686373433 677.8374333325588 2183.6790686373433 677.8374333325588 2178.6939905948493 678.3336879885553 2178.6939905948493 678.3336879885553 2174.0507488336552 676.833667003171 2174.0507488336552 676.833667003171 2171.6087120620455 672.7764594031166 2171.6087120620455 672.7764594031166 2168.903326183426 662.0974935086173 2168.903326183426 662.0974935086173 2168.2900194903477 660.3644438143584 2168.2900194903477 660.3644438143584 2170.6999673561886 657.370919158823 2170.6999673561886 657.370919158823 2174.399872802347 657.2631319458364 2174.399872802347 657.2631319458364 2175.5122969197555 658.1565299619904 2175.5122969197555 658.1565299619904 2175.8203583997642 659.0403956665749 2175.8203583997642 659.0403956665749 2175.8862110657874 659.9945552569095 2175.8862110657874 659.9945552569095 2174.908794368321 661.0091816941699 2174.908794368321 661.0091816941699 2174.4257855440846 661.150123970022 2174.4257855440846 661.150123970022 2174.0300399057974 660.7789155933916 2174.0300399057974 660.7789155933916 2173.6340667370628 660.4077954486683 2173.6340667370628 660.4077954486683 2173.4021766611468 659.7452494626344 2173.4021766611468 659.7452494626344 2172.5997781951837 659.7365805285591 2172.5997781951837 659.7365805285591 2172.900078899023 661.3529868027351 2172.900078899023 661.3529868027351 2174.569563427933 662.3250012592085 2174.569563427933 662.3250012592085 2174.8877771352327 662.4754242516736 2174.8877771352327 662.4754242516736 2175.7762279322264 661.9730331081498 2175.7762279322264 661.9730331081498 2176.9069258909276 661.4009500384864 2176.9069258909276 661.4009500384864 2177.0718920327695 661.1098218036259 2177.0718920327695 661.1098218036259 2177.442778379017 662.9479294148803 2177.442778379017 662.9479294148803 2177.430861697326 663.6809830401944 2177.430861697326 663.6809830401944 2177.1015073251137 664.263115652125 2177.1015073251137 664.263115652125 2176.2906558466293 664.9856747553306 2176.2906558466293 664.9856747553306 2176.1263618477406 665.2768341509284 2176.1263618477406 665.2768341509284 2174.538666634065 664.5242117261971 2174.538666634065 664.5242117261971 2173.01688162597 664.726939372391 2173.01688162597 664.726939372391 2172.6897498443286 665.3099292932989 2172.6897498443286 665.3099292932989 2172.6805074051927 666.0429483720002 2172.6805074051927 666.0429483720002 2172.988628075663 666.9259812628151 2172.988628075663 666.9259812628151 2173.4596942306152 667.5176302163313 2173.4596942306152 667.5176302163313 2174.257330489136 667.5267130060632 2174.257330489136 667.5267130060632 2174.8146288829735 667.6065978117168 2174.8146288829735 667.6065978117168 2176.268186089282 666.4516663466371 2176.268186089282 666.4516663466371 2177.9652008889702 665.2279871483428 2177.9652008889702 665.2279871483428 2178.1815460275257 666.6239843609923 2178.1815460275257 666.6239843609923 2177.2835531426613 667.8579386336844 2177.2835531426613 667.8579386336844 2176.398496252227 668.3594112421525 2176.398496252227 668.3594112421525 2176.5171610530183 670.999971506792 2176.5171610530183 670.999971506792 2177.061311212815 671.813501214581 2177.061311212815 671.813501214581 2179.5092960634333 672.8010471583091 2179.5092960634333 672.8010471583091 2182.7770057964763 672.339800898285 2182.7770057964763 672.339800898285 2184.6222393975263 671.5655764720316 2184.6222393975263 671.5655764720316 2185.3324177408626 668.2060956120715 2185.3324177408626 668.2060956120715 2184.716784182201 667.1684597398576 2184.716784182201 667.1684597398576 2183.452330134835 666.5596543683812 2183.452330134835 666.5596543683812 2182.111247785298 665.7306163727733 2182.111247785298 665.7306163727733 2181.0715320819045 665.7872198014292 2181.0715320819045 665.7872198014292 2180.2728595501385 665.7748264325737 2180.2728595501385 665.7748264325737 2179.4741825528517 665.7628210674436 2179.4741825528517 665.7628210674436 2179.2461729911433 665.0996120462707 2179.2461729911433 665.0996120462707 2179.3351429185705 664.5876870546414 2179.3351429185705 664.5876870546414 2181.1751271503067 664.5424274024646 2181.1751271503067 664.5424274024646 2183.498031254632 664.3608205284364 2183.498031254632 664.3608205284364 2184.914739476409 665.4123534421014 2184.914739476409 665.4123534421014 2185.772113948866 666.3812727860376 2185.772113948866 666.3812727860376 2186.570469783121 666.3963376545105 2186.570469783121 666.3963376545105 2187.2941872274096 666.1903619413573 2187.2941872274096 666.1903619413573 2188.035904261643 665.2518091417732 2188.035904261643 665.2518091417732 2187.904445218896 664.0759490606371 2187.904445218896 664.0759490606371 2187.3638117352507 663.2586581509885 2187.3638117352507 663.2586581509885 2186.4136650431815 662.8003724724408 2186.4136650431815 662.8003724724408 2185.613127441323 662.785382322716 2185.613127441323 662.785382322716 2184.5708360893505 662.839777603102 2184.5708360893505 662.839777603102 2183.43791285582 663.4065621210254 2183.43791285582 663.4065621210254 2180.8719392434823 663.6577984694609 2180.8719392434823 663.6577984694609 2179.7546295419547 663.494085749145 2179.7546295419547 663.494085749145 2179.628818685846 661.5857440316463 2179.628818685846 661.5857440316463 2180.4573759235996 660.1316049923405 2180.4573759235996 660.1316049923405 2182.137457632567 660.3782129235083 2182.137457632567 660.3782129235083 2183.3174912624754 661.4979377126301 2183.3174912624754 661.4979377126301 2185.086872368268 661.2357577503983 2185.086872368268 661.2357577503983 2186.055390621358 660.9602671023063 2186.055390621358 660.9602671023063 2186.2394751100514 659.9369760951251 2186.2394751100514 659.9369760951251 2186.1061061246114 658.7609790444952 2186.1061061246114 658.7609790444952 2185.244190526533 657.7915557326228 2185.244190526533 657.7915557326228 2184.046643750634 657.4034613372891 2184.046643750634 657.4034613372891 2182.2574191596236 658.4000184909157 2182.2574191596236 658.4000184909157 2182.0003761034495 659.2025792048856 2182.0003761034495 659.2025792048856 2180.637123676005 659.1076534508005 2180.637123676005 659.1076534508005 2180.179877961348 657.7805243453798 2180.179877961348 657.7805243453798 2180.7065567091786 655.4413903839597 2180.7065567091786 655.4413903839597 2183.045909396863 655.2590481514505 2183.045909396863 655.2590481514505 2184.0344518281254 654.2489211107863 2184.0344518281254 654.2489211107863 2182.4527327240057 652.754799209715 2182.4527327240057 652.754799209715 2181.5550498722905 653.2538578500537 2181.5550498722905 653.2538578500537 2181.2973101747134 654.0567869990352 2181.2973101747134 654.0567869990352 2180.324618898937 654.3351832894116 2180.324618898937 654.3351832894116 2178.482675919987 653.6480038197337 2178.482675919987 653.6480038197337 2177.2913060295523 652.5312181646451 2177.2913060295523 652.5312181646451 2176.4185926940336 651.5660147076943 2176.4185926940336 651.5660147076943 2174.648136778981 651.1040704718182 2174.648136778981 651.1040704718182 2173.9481602633005 649.1147898432199 2173.9481602633005 649.1147898432199 2175.57762333223 648.4001058585601 2175.57762333223 648.4001058585601 2175.7551892740094 647.37478297613 2175.7551892740094 647.37478297613 2174.8776218367557 646.4099737823356 2174.8776218367557 646.4099737823356 2171.8776653655677 646.3037982430067 2171.8776653655677 646.3037982430067 2170.640754743508 648.1267247710527 2170.640754743508 648.1267247710527 2170.8763203213093 648.7894112067089 2170.8763203213093 648.7894112067089 2171.2768171092885 649.1601588424697 2171.2768171092885 649.1601588424697 2172.2424374215443 649.6100806665025 2172.2424374215443 649.6100806665025 2172.954346088291 650.8649521259392 2172.954346088291 650.8649521259392 2171.173182896875 651.1403236773525 2171.173182896875 651.1403236773525 2169.643362034001 650.6126870186615 2169.643362034001 650.6126870186615 2167.704704728525 650.4501838777537 2167.704704728525 650.4501838777537 2165.7602928259157 651.023615929997 2165.7602928259157 651.023615929997 2160.9843461098208 653.4209303191697 2160.9843461098208 653.4209303191697 2158.8843202455514 655.0285885430037 2158.8843202455514 655.0285885430037 2156.708705973701 658.6186654440442 2156.708705973701 658.6186654440442 2156.385567142776 668.7355805430177 2156.385567142776 668.7355805430177 2160.1101144740055 675.4125285374666 2160.1101144740055 675.4125285374666 2169.4451824378452 685.5094208004402 2169.4451824378452 685.5094208004402 2187.8324743684702 687.3888097979118 2187.8324743684702 687.3888097979118 2201.465148725602 684.4945492797401 2201.465148725602 684.4945492797401 2204.5018291997526 683.4106558354257 2204.5018291997526 683.4106558354257 2211.4405109403647 679.8223030401215 2211.4405109403647 679.8223030401215 2217.17641381286 675.629334232471 2217.17641381286 675.629334232471 2221.521541851194 653.5885237622517 2221.521541851194 653.5885237622517 2223.287427240866 644.3405379502626 2223.287427240866 644.3405379502626 2220.7831368880225 640.7915067858396 2220.7831368880225 640.7915067858396 2247.038100054292 634.7333268250655 2247.038100054292 634.7333268250655 2247.6319711422884 640.0117621390456 2247.6319711422884 640.0117621390456 2250.4302279195035 648.0959440870959 2250.4302279195035 648.0959440870959 2260.3700489020653 661.9840492604994 2260.3700489020653 661.9840492604994 2274.9205089559205 666.5530347584746 2274.9205089559205 666.5530347584746 2289.438256844963 664.2172998539193 2289.438256844963 664.2172998539193 2302.8577466921142 655.2433861768094 2302.8577466921142 655.2433861768094 2306.255738319266 646.3170912577891 2306.255738319266 646.3170912577891 2304.032801647864 635.2093375270043 2304.032801647864 635.2093375270043 2299.5044556401303 634.0460428323318 2299.5044556401303 634.0460428323318 2299.635352918021 636.496669423826 2299.635352918021 636.496669423826 2298.053846752133 647.1363800969852 2298.053846752133 647.1363800969852 2289.467633165472 651.8052100823784 2289.467633165472 651.8052100823784 2268.9728744220565 646.3149226951618 2268.9728744220565 646.3149226951618 2264.2137794774485 635.757485203564 2264.2137794774485 635.757485203564 2262.8108576751156 630.6704489826076 2262.8108576751156 630.6704489826076 2253.981647971734 593.8780597124862 2253.981647971734 593.8780597124862 2249.8801075706974 574.2368126822656 2249.8801075706974 574.2368126822656 2246.8915223786043 567.3225118883415 2246.8915223786043 567.3225118883415 2246.90509018959 565.6316855751661 2246.90509018959 565.6316855751661 2250.1956390584337 566.5856268291417 2250.1956390584337 566.5856268291417 2254.538190001648 567.7344258397251 2254.538190001648 567.7344258397251 2258.071367714531 567.8057500900944 2258.071367714531 567.8057500900944 2261.281647751444 566.6929173682532 2261.281647751444 566.6929173682532 2265.719250398827 564.4877329173447 2265.719250398827 564.4877329173447 2266.1432251785923 562.2969095264987 2266.1432251785923 562.2969095264987 2265.824341175524 561.102552509996 2265.824341175524 561.102552509996 2264.173624174319 560.6093301416101 2264.173624174319 560.6093301416101 2261.996676107911 561.9130827065615 2261.996676107911 561.9130827065615 2261.951638566008 563.6057970726415 2261.951638566008 563.6057970726415 2259.6788121680224 564.5136056154172 2259.6788121680224 564.5136056154172 2254.818075117527 565.1464746245214 2254.818075117527 565.1464746245214 2254.343795465245 565.2501831173814 2254.343795465245 565.2501831173814 2243.260861164352 563.4944823353043 2243.260861164352 563.4944823353043 2239.836004146162 565.5408771898587 2239.836004146162 565.5408771898587 2230.6455117693067 574.8651880555708 2230.6455117693067 574.8651880555708 2233.1211244477804 578.0830859040415 2233.1211244477804 578.0830859040415 2235.3311430388226 578.8300931736658 2235.3311430388226 578.8300931736658 2243.724506130508 621.7462530483202 2243.724506130508 621.7462530483202 2218.549714980023 629.1996758386694 2218.549714980023 629.1996758386694 2219.0734216782475 624.8678013488448 2219.0734216782475 624.8678013488448 2212.0201473229135 587.871588471687 2212.0201473229135 587.871588471687 2212.08216243284 575.9813567755227 2212.08216243284 575.9813567755227 2220.6881302198485 571.7440509812634 2220.6881302198485 571.7440509812634 2222.080810698896 571.4070820196254 2222.080810698896 571.4070820196254 2225.241430214518 571.9188407762475 2225.241430214518 571.9188407762475 2229.230696251777 573.5085393327663 2229.230696251777 573.5085393327663 2241.8479750670585 562.1225822181807 2241.8479750670585 562.1225822181807 2249.1747748173484 563.0155060075676 2249.1747748173484 563.0155060075676 2249.9656163536856 563.8911593686827 2249.9656163536856 563.8911593686827" id="i am a detail" style="fill:#ff3388" /><polygon points="2312.757715020547 692.1380177574301 2312.069886161268 701.9500929861266 2312.069886161268 701.9500929861266 2311.4284399250364 705.5328277818256 2311.4284399250364 705.5328277818256 2307.118476525473 710.5641819662205 2307.118476525473 710.5641819662205 2303.7601325212936 713.3359137421434 2303.7601325212936 713.3359137421434 2298.796956890779 715.4186566079566 2298.796956890779 715.4186566079566 2296.7993911703893 716.1888863173153 2296.7993911703893 716.1888863173153 2292.2280748473813 716.8232894227856 2292.2280748473813 716.8232894227856 2289.0404838887557 717.1667476201653 2289.0404838887557 717.1667476201653 2289.6735716162857 719.793436203966 2289.6735716162857 719.793436203966 2292.934850515354 719.7793573029638 2292.934850515354 719.7793573029638 2297.7311524901784 720.1322718222766 2297.7311524901784 720.1322718222766 2305.825802581235 719.1115552902618 2305.825802581235 719.1115552902618 2309.131788681823 717.7325082735264 2309.131788681823 717.7325082735264 2312.7895746127747 716.2866833485072 2312.7895746127747 716.2866833485072 2328.058628571297 801.614083057343 2328.058628571297 801.614083057343 2326.982622671267 806.3293559102971 2326.982622671267 806.3293559102971 2322.248854648813 811.8185416051734 2322.248854648813 811.8185416051734 2319.353658855345 814.5095569856401 2319.353658855345 814.5095569856401 2314.325827131025 816.9716189872215 2314.325827131025 816.9716189872215 2312.4060070400296 817.7326349710693 2312.4060070400296 817.7326349710693 2309.7097428306547 819.7053082539426 2309.7097428306547 819.7053082539426 2310.146067456779 821.6926371453098 2310.146067456779 821.6926371453098 2359.579004939906 813.9595574177565 2359.579004939906 813.9595574177565 2356.5480525086577 811.0911085092198 2356.5480525086577 811.0911085092198 2352.1876060327545 810.2153710381904 2352.1876060327545 810.2153710381904 2343.772658560945 804.975617485715 2343.772658560945 804.975617485715 2342.47462480321 802.1288624230665 2342.47462480321 802.1288624230665 2331.0091613624677 738.3910257893283 2331.0091613624677 738.3910257893283 2328.0673584465094 723.1712363044267 2328.0673584465094 723.1712363044267 2326.672620720664 713.4748024069768 2326.672620720664 713.4748024069768 2346.970639661943 708.4880793107369 2346.970639661943 708.4880793107369 2359.284799713899 706.5538298631566 2359.284799713899 706.5538298631566 2370.5665971557305 701.1330543889701 2370.5665971557305 701.1330543889701 2369.8408769623297 697.4930543815194 2369.8408769623297 697.4930543815194 2369.179878156582 694.1848389250029 2369.179878156582 694.1848389250029 2365.8806374918954 692.3622546774334 2365.8806374918954 692.3622546774334 2361.85063044882 692.3868327250829 2361.85063044882 692.3868327250829 2364.1591711548926 694.7184147274954 2364.1591711548926 694.7184147274954 2353.2044783796473 701.8326433899344 2353.2044783796473 701.8326433899344 2339.9612594673854 704.6740923280706 2339.9612594673854 704.6740923280706 2326.276372913127 707.0352894558972 2326.276372913127 707.0352894558972 2321.3571426491526 693.5750836454642 2321.3571426491526 693.5750836454642 2319.9007422842315 687.3310124214643 2319.9007422842315 687.3310124214643 2316.6150750692086 685.9369022127566 2316.6150750692086 685.9369022127566 2312.815299336637 687.0667362972179 2312.815299336637 687.0667362972179 2312.5852130937624 692.2837538900558 2312.5852130937624 692.2837538900558 2312.757715020547 692.1380177574301 2312.757715020547 692.1380177574301" id="i am a detail" style="fill:#ff3388" /><polygon points="2385.6387180254587 741.4977127294725 2370.733423111109 736.0968527830407 2370.733423111109 736.0968527830407 2356.5042416098518 736.8951584548613 2356.5042416098518 736.8951584548613 2343.0680068306065 748.3392633456759 2343.0680068306065 748.3392633456759 2341.6197637543 761.55451153485 2341.6197637543 761.55451153485 2344.0988813640706 780.715790178592 2344.0988813640706 780.715790178592 2346.809838289087 794.4948874542354 2346.809838289087 794.4948874542354 2358.0321141148643 805.7679306885384 2358.0321141148643 805.7679306885384 2365.0597708214195 807.1308969329249 2365.0597708214195 807.1308969329249 2372.871723283273 807.9247318907278 2372.871723283273 807.9247318907278 2382.5446133390096 806.6236350601799 2382.5446133390096 806.6236350601799 2391.4222067271994 798.357345163234 2391.4222067271994 798.357345163234 2392.165946286634 792.4267237048535 2392.165946286634 792.4267237048535 2394.8979396238765 802.671026100762 2394.8979396238765 802.671026100762 2400.8898746525924 803.4366023163051 2400.8898746525924 803.4366023163051 2410.445361443143 801.3981774881285 2410.445361443143 801.3981774881285 2404.3060530086427 789.4797023716241 2404.3060530086427 789.4797023716241 2397.663923628076 739.0308692547848 2397.663923628076 739.0308692547848 2400.644383587427 734.990912911566 2400.644383587427 734.990912911566 2389.9354100451924 737.2136009098149 2389.9354100451924 737.2136009098149 2387.8260966120306 743.3454703180225 2387.8260966120306 743.3454703180225 2392.138179300775 782.1800259617133 2392.138179300775 782.1800259617133 2389.048539174424 795.1980883924865 2389.048539174424 795.1980883924865 2381.4781948677382 803.2351857406459 2381.4781948677382 803.2351857406459 2369.373753714225 803.6433395911697 2369.373753714225 803.6433395911697 2365.0733939560228 799.9661325604927 2365.0733939560228 799.9661325604927 2360.9513272833897 780.6314418771119 2360.9513272833897 780.6314418771119 2358.6479994806873 756.9879523263915 2358.6479994806873 756.9879523263915 2360.9814848538695 745.4239668910536 2360.9814848538695 745.4239668910536 2364.408497042956 741.6828363923275 2364.408497042956 741.6828363923275 2368.795861885656 740.446970207807 2368.795861885656 740.446970207807 2372.9878318603655 740.5898052517955 2372.9878318603655 740.5898052517955 2378.3178696251107 741.8752604006851 2378.3178696251107 741.8752604006851 2383.8811218103956 744.465623979961 2383.8811218103956 744.465623979961 2385.6387180254587 741.4977127294725 2385.6387180254587 741.4977127294725" id="i am a detail" style="fill:#ff3388" /><polygon points="2410.0520647427406 717.6684010938949 2401.1647501351176 724.5759518302939 2401.1647501351176 724.5759518302939 2393.838224431909 727.8376310569313 2393.838224431909 727.8376310569313 2400.017799474689 730.250832439651 2400.017799474689 730.250832439651 2407.113863631544 729.7900517331203 2407.113863631544 729.7900517331203 2419.524089397274 801.9748698599346 2419.524089397274 801.9748698599346 2412.205098007828 807.9909590074432 2412.205098007828 807.9909590074432 2436.267008051651 806.2694615421464 2436.267008051651 806.2694615421464 2429.821595802795 801.0481388630968 2429.821595802795 801.0481388630968 2420.4722726599407 719.4806279409046 2420.4722726599407 719.4806279409046 2409.348608288365 717.779253464396 2409.348608288365 717.779253464396 2410.0520647427406 717.6684010938949 2410.0520647427406 717.6684010938949" id="i am a detail" style="fill:#ff3388" /><polygon points="2406.71169618316 699.5347808807406 2406.6234908467504 699.4060300770898 2406.6234908467504 699.4060300770898 2406.3918919665275 699.0680932220181 2406.3918919665275 699.0680932220181 2406.722915626897 698.7200951722043 2406.722915626897 698.7200951722043 2407.1821489868325 698.6475285046629 2407.1821489868325 698.6475285046629 2407.5648742596222 698.5871452689858 2407.5648742596222 698.5871452689858 2408.1392330811427 698.7183605822588 2408.1392330811427 698.7183605822588 2408.636950039224 698.8617795059902 2408.636950039224 698.8617795059902 2409.3897358504373 699.1131043350524 2409.3897358504373 699.1131043350524 2410.2826100791644 699.2689425704323 2410.2826100791644 699.2689425704323 2410.6652956364123 699.2092156426961 2410.6652956364123 699.2092156426961 2411.111866594997 699.0657574707511 2411.111866594997 699.0657574707511 2411.3288421470716 698.9581224956804 2411.3288421470716 698.9581224956804 2411.3673607068467 698.7305304902893 2411.3673607068467 698.7305304902893 2411.5073060373184 699.0781012782556 2411.5073060373184 699.0781012782556 2411.4561029354863 699.2337944058188 2411.4561029354863 699.2337944058188 2411.239156813279 699.3414137756764 2411.239156813279 699.3414137756764 2411.02224048711 699.449059037553 2411.02224048711 699.449059037553 2410.869180807632 699.472909827166 2410.869180807632 699.472909827166 2410.9710976710376 699.6047652598259 2410.9710976710376 699.6047652598259 2411.2006719702595 699.5690069162979 2411.2006719702595 699.5690069162979 2411.442928355903 699.6051722539114 2411.442928355903 699.6051722539114 2411.889457781822 699.4619066828452 2411.889457781822 699.4619066828452 2411.940696432179 699.3062262213248 2411.940696432179 699.3062262213248 2412.01724203381 699.2943445304745 2412.01724203381 699.2943445304745 2412.131715054918 699.4981643265735 2412.131715054918 699.4981643265735 2412.0931047125173 699.725738076868 2412.0931047125173 699.725738076868 2411.888831635508 699.9051779524707 2411.888831635508 699.9051779524707 2411.4297601560966 699.976548808892 2411.4297601560966 699.976548808892 2411.238271556477 700.2279558978455 2411.238271556477 700.2279558978455 2411.340108613053 700.3598312166156 2411.340108613053 700.3598312166156 2411.7225687344785 700.3003286248374 2411.7225687344785 700.3003286248374 2411.8755609257687 700.2765502394675 2411.8755609257687 700.2765502394675 2412.1689263508815 700.1571329984187 2412.1689263508815 700.1571329984187 2412.5001946723723 700.2534676636169 2412.5001946723723 700.2534676636169 2412.3211926768595 700.5766608484273 2412.3211926768595 700.5766608484273 2411.9387765317906 700.6360366497202 2411.9387765317906 700.6360366497202 2412.587670877975 701.2000461064381 2412.587670877975 701.2000461064381 2412.2944673916327 701.3193945510471 2412.2944673916327 701.3193945510471 2411.96340973602 701.2230982463069 2411.96340973602 701.2230982463069 2412.1156293387826 701.6426060390145 2412.1156293387826 701.6426060390145 2412.8917056130576 702.0391790237807 2412.8917056130576 702.0391790237807 2413.0948576588576 702.3031190045457 2413.0948576588576 702.3031190045457 2412.7766421992173 702.2785790407445 2412.7766421992173 702.2785790407445 2412.3182175578536 702.349723466816 2412.3182175578536 702.349723466816 2412.406459248066 702.8530221729767 2412.406459248066 702.8530221729767 2413.2079901757975 702.950266867699 2413.2079901757975 702.950266867699 2413.449686526781 702.9867004292237 2413.449686526781 702.9867004292237 2413.258242787288 703.2378903828121 2413.258242787288 703.2378903828121 2413.1432122308593 703.4772669013797 2413.1432122308593 703.4772669013797 2413.6640601268123 703.7658754721427 2413.6640601268123 703.7658754721427 2414.0583137381827 703.778776756962 2414.0583137381827 703.778776756962 2414.5927641180915 703.6963016945502 2414.5927641180915 703.6963016945502 2415.1926973622126 703.0870565079713 2415.1926973622126 703.0870565079713 2415.3985295430657 702.4647307131618 2415.3985295430657 702.4647307131618 2415.3767756077145 701.4343633423159 2415.3767756077145 701.4343633423159 2415.328440692599 700.7034151225785 2415.328440692599 700.7034151225785 2414.59543416707 698.7484595310104 2414.59543416707 698.7484595310104 2413.858252649058 697.6803232302376 2413.858252649058 697.6803232302376 2413.4394319297426 696.6370713761014 2413.4394319297426 696.6370713761014 2413.3890140748395 696.3494247956123 2413.3890140748395 696.3494247956123 2413.325966163159 695.9898662095829 2413.325966163159 695.9898662095829 2413.9296203654526 694.9368483243587 2413.9296203654526 694.9368483243587 2415.133142010062 694.6046101900779 2415.133142010062 694.6046101900779 2415.747615604719 694.5107206541722 2415.747615604719 694.5107206541722 2416.5946494876516 693.9386495389061 2416.5946494876516 693.9386495389061 2416.646556597357 693.7830865564451 2416.646556597357 693.7830865564451 2416.8023443517554 693.3164024402448 2416.8023443517554 693.3164024402448 2417.134797625635 693.4135983441718 2417.134797625635 693.4135983441718 2417.2490226608206 693.6177646748382 2417.2490226608206 693.6177646748382 2417.311238602005 693.9774793184812 2417.311238602005 693.9774793184812 2417.1678110182806 694.5160520684656 2417.1678110182806 694.5160520684656 2416.974695170542 694.7668730653298 2416.974695170542 694.7668730653298 2417.574528540516 695.0449681953113 2417.574528540516 695.0449681953113 2417.958561160861 694.9867804163392 2417.958561160861 694.9867804163392 2418.7911802554854 694.7871019369388 2418.7911802554854 694.7871019369388 2419.9038349212838 694.8409782666467 2419.9038349212838 694.8409782666467 2421.098956088643 695.8425904282738 2421.098956088643 695.8425904282738 2421.516251286842 696.44433778249 2421.516251286842 696.44433778249 2421.50063332804 696.8156510538414 2421.50063332804 696.8156510538414 2421.294861090817 696.9940324836467 2421.294861090817 696.9940324836467 2421.040151662912 696.8845831204584 2421.040151662912 696.8845831204584 2420.951156677288 696.8241202795689 2420.951156677288 696.8241202795689 2421.38049117132 697.4977872871865 2421.38049117132 697.4977872871865 2421.833882922443 698.315482801228 2421.833882922443 698.315482801228 2422.4608465949336 699.6975993808476 2422.4608465949336 699.6975993808476 2422.5216757995436 700.0574506713507 2422.5216757995436 700.0574506713507 2422.276159676599 700.4630590512718 2422.276159676599 700.4630590512718 2422.1230063508724 700.4859565932173 2422.1230063508724 700.4859565932173 2421.8689050988546 700.3763956222037 2421.8689050988546 700.3763956222037 2421.654748197966 700.0395046246151 2421.654748197966 700.0395046246151 2421.4405046073803 699.7026380268628 2421.4405046073803 699.7026380268628 2421.088393194076 699.0174799882236 2421.088393194076 699.0174799882236 2420.8952155082416 699.2678623023721 2420.8952155082416 699.2678623023721 2421.2351361379306 699.8810191520122 2421.2351361379306 699.8810191520122 2422.2447531171156 701.2056331726565 2422.2447531171156 701.2056331726565 2422.656678129927 702.2508563164268 2422.656678129927 702.2508563164268 2422.8181506307274 702.7432270593235 2422.8181506307274 702.7432270593235 2422.8666891738003 703.0311136020795 2422.8666891738003 703.0311136020795 2422.802366618689 703.1145069529921 2422.802366618689 703.1145069529921 2422.4201111172824 703.1716630912078 2422.4201111172824 703.1716630912078 2421.8883973905845 702.8085646133675 2421.8883973905845 702.8085646133675 2421.7753905449986 702.6041343737085 2421.7753905449986 702.6041343737085 2421.497205968336 702.3506978985243 2421.497205968336 702.3506978985243 2421.1180179200715 701.9648757307555 2421.1180179200715 701.9648757307555 2421.368657579741 702.5175845219458 2421.368657579741 702.5175845219458 2422.3001948730275 703.8537046502769 2422.3001948730275 703.8537046502769 2422.9248460604904 705.2359567851216 2422.9248460604904 705.2359567851216 2423.0944306207257 706.2435881658487 2423.0944306207257 706.2435881658487 2422.8255660352706 706.5051761185504 2422.8255660352706 706.5051761185504 2422.5966929433 706.5394577934206 2422.5966929433 706.5394577934206 2422.2672636298153 706.4412733843924 2422.2672636298153 706.4412733843924 2422.288109445125 707.0284747487814 2422.288109445125 707.0284747487814 2422.336656080124 707.316355111443 2422.336656080124 707.316355111443 2422.1962991849427 707.4112174495654 2422.1962991849427 707.4112174495654 2421.8150925820096 707.4685036950262 2421.8150925820096 707.4685036950262 2421.574216437703 707.4309487963758 2421.574216437703 707.4309487963758 2421.378863610413 708.1245532296197 2421.378863610413 708.1245532296197 2420.9856720456714 708.1100510605718 2420.9856720456714 708.1100510605718 2420.732675116024 708.0006464957955 2420.732675116024 708.0006464957955 2420.6290937239924 708.3115138464705 2420.6290937239924 708.3115138464705 2420.501139067137 708.4784699161419 2420.501139067137 708.4784699161419 2420.360997802989 708.5734770623137 2420.360997802989 708.5734770623137 2420.208653232142 708.5965377907646 2420.208653232142 708.5965377907646 2419.8795096062217 708.4987875535355 2419.8795096062217 708.4987875535355 2419.562579599146 708.4730505066077 2419.562579599146 708.4730505066077 2419.0442191792204 708.1827272310704 2419.0442191792204 708.1827272310704 2418.400284095448 707.6163839982256 2418.400284095448 707.6163839982256 2418.1493638878255 707.0640719394307 2418.1493638878255 707.0640719394307 2417.684076300007 706.1753767359925 2417.684076300007 706.1753767359925 2417.3193343033604 705.4190209731872 2417.3193343033604 705.4190209731872 2416.698554534747 704.9971733819884 2416.698554534747 704.9971733819884 2416.496320604661 704.7328271181055 2416.496320604661 704.7328271181055 2416.921112113523 703.5604253270105 2416.921112113523 703.5604253270105 2416.7618673795478 702.1820634964686 2416.7618673795478 702.1820634964686 2416.742981529123 700.7084156746577 2416.742981529123 700.7084156746577 2416.519223488379 699.4136704735649 2416.519223488379 699.4136704735649 2416.2434099563516 698.2744940795061 2416.2434099563516 698.2744940795061 2416.3593073963075 698.0353075141904 2416.3593073963075 698.0353075141904 2416.576796358619 697.9283009882851 2416.576796358619 697.9283009882851 2416.8564956478303 698.18098721042 2416.8564956478303 698.18098721042 2416.9600655275326 697.8699051679115 2416.9600655275326 697.8699051679115 2416.94763440962 697.7979707466188 2416.94763440962 697.7979707466188 2417.254285959729 697.7513103242586 2417.254285959729 697.7513103242586 2417.6748255345497 697.9088756211377 2417.6748255345497 697.9088756211377 2417.7120131959127 698.1246935027373 2417.7120131959127 698.1246935027373 2417.7367997849183 698.268572136608 2417.7367997849183 698.268572136608 2417.852929631668 698.0294812797908 2417.852929631668 698.0294812797908 2417.880038788384 697.7300861006007 2417.880038788384 697.7300861006007 2417.766184937057 697.5258988087635 2417.766184937057 697.5258988087635 2418.367305263638 697.3609621630816 2418.367305263638 697.3609621630816 2418.622110173338 697.4700346296504 2418.622110173338 697.4700346296504 2418.735857264059 697.6742759000549 2418.735857264059 697.6742759000549 2418.67152857219 697.7578196707385 2418.67152857219 697.7578196707385 2418.644267426099 698.0572028383485 2418.644267426099 698.0572028383485 2418.387081862906 698.3914020984619 2418.387081862906 698.3914020984619 2418.181898080689 698.5701324228407 2418.181898080689 698.5701324228407 2418.681318650116 698.2730401309543 2418.681318650116 698.2730401309543 2419.015261047495 697.9272964962313 2419.015261047495 697.9272964962313 2419.10695177062 697.5443875688088 2419.10695177062 697.5443875688088 2417.8575925489304 697.1429242077843 2417.8575925489304 697.1429242077843 2417.5507990161054 697.1894829167962 2417.5507990161054 697.1894829167962 2417.0263902889083 697.3430211025839 2417.0263902889083 697.3430211025839 2416.5020902021465 697.4967107182599 2416.5020902021465 697.4967107182599 2415.963630123148 698.0219029603523 2415.963630123148 698.0219029603523 2416.098975854438 699.2563767373571 2416.098975854438 699.2563767373571 2416.1986275324084 699.8317952057164 2416.1986275324084 699.8317952057164 2416.381532700326 701.7972373111678 2416.381532700326 701.7972373111678 2416.4647394733133 703.187255885922 2416.4647394733133 703.187255885922 2416.168002081285 704.1924980153422 2416.168002081285 704.1924980153422 2416.8739710254517 705.5609439371425 2416.8739710254517 705.5609439371425 2417.0823362087694 707.2270761229017 2417.0823362087694 707.2270761229017 2417.0248686013742 708.7124470773617 2417.0248686013742 708.7124470773617 2416.383777129154 710.4351993583896 2416.383777129154 710.4351993583896 2415.8621616432124 711.032384761734 2415.8621616432124 711.032384761734 2416.1645193715826 711.4288453731544 2416.1645193715826 711.4288453731544 2416.694716376552 711.7902967387835 2416.694716376552 711.7902967387835 2416.8713994355644 711.9108161050601 2416.8713994355644 711.9108161050601 2417.555360653119 711.805864372966 2417.555360653119 711.805864372966 2417.7341334263115 711.4831565525111 2417.7341334263115 711.4831565525111 2418.180239105178 710.8981271696952 2418.180239105178 710.8981271696952 2418.5482115305003 710.7681177082954 2418.5482115305003 710.7681177082954 2418.8647138530264 710.793677143152 2418.8647138530264 710.793677143152 2419.1419130107683 711.0467322871972 2419.1419130107683 711.0467322871972 2419.4950718631553 711.2882657061818 2419.4950718631553 711.2882657061818 2418.7862196714823 711.2485726591863 2418.7862196714823 711.2485726591863 2418.406051429215 711.3065854749004 2418.406051429215 711.3065854749004 2418.290856262747 711.545659081997 2418.290856262747 711.545659081997 2418.4920097204777 711.8102360088765 2418.4920097204777 711.8102360088765 2418.908844653973 711.9681016427465 2418.908844653973 711.9681016427465 2419.4383117851094 712.3303685111988 2419.4383117851094 712.3303685111988 2419.523923377971 712.8340828056838 2419.523923377971 712.8340828056838 2419.3842169118657 712.9291759347177 2419.3842169118657 712.9291759347177 2418.590191890062 712.3858501157388 2418.590191890062 712.3858501157388 2418.1466011404978 712.5274769312493 2418.1466011404978 712.5274769312493 2418.573200879516 713.200545937632 2418.573200879516 713.200545937632 2418.5977294365757 713.3444551060052 2418.5977294365757 713.3444551060052 2418.2817024763012 713.3189408707732 2418.2817024763012 713.3189408707732 2418.017029339462 713.1379527683325 2418.017029339462 713.1379527683325 2417.879612908648 712.7898356657611 2417.879612908648 712.7898356657611 2417.2350074741644 712.6671728865097 2417.2350074741644 712.6671728865097 2417.0071349444315 712.70216934931 2417.0071349444315 712.70216934931 2417.0421783426764 713.3613291217699 2417.0421783426764 713.3613291217699 2416.8533180918025 713.1688451918833 2416.8533180918025 713.1688451918833 2416.766928465244 712.6652539121643 2416.766928465244 712.6652539121643 2415.5053163291254 711.6781857787132 2415.5053163291254 711.6781857787132 2415.604521058023 712.2536335243385 2415.604521058023 712.2536335243385 2416.208792699947 713.0465498475426 2416.208792699947 713.0465498475426 2418.016137008095 715.8700101215311 2418.016137008095 715.8700101215311 2418.163353923476 716.7335192315762 2418.163353923476 716.7335192315762 2417.682012988119 717.1027916857038 2417.682012988119 717.1027916857038 2417.354373838365 717.0054789159587 2417.354373838365 717.0054789159587 2416.6072805081662 717.6375686591387 2416.6072805081662 717.6375686591387 2416.2409647154773 717.7680066193027 2416.2409647154773 717.7680066193027 2415.7372119564798 717.5505049256043 2415.7372119564798 717.5505049256043 2415.5362893637352 717.2861832512871 2415.5362893637352 717.2861832512871 2414.9965378950656 716.4096755171828 2414.9965378950656 716.4096755171828 2414.743072684821 716.7444761488728 2414.743072684821 716.7444761488728 2414.9180092577903 717.3082222775563 2414.9180092577903 717.3082222775563 2414.564165233145 717.5109426452175 2414.564165233145 717.5109426452175 2413.9459836749556 717.5333179223862 2413.9459836749556 717.5333179223862 2413.4563463697345 716.5016023434623 2413.4563463697345 716.5016023434623 2413.4967662401705 715.3872460631023 2413.4967662401705 715.3872460631023 2413.242491133745 716.1656236237803 2413.242491133745 716.1656236237803 2413.1149834845173 716.7765307594582 2413.1149834845173 716.7765307594582 2412.6730249594502 716.9195329615758 2412.6730249594502 716.9195329615758 2411.7648496192173 716.6186364324516 2411.7648496192173 716.6186364324516 2412.4127529455877 714.0791302761475 2412.4127529455877 714.0791302761475 2412.6035907787877 713.3844627248359 2412.6035907787877 713.3844627248359 2412.5034264298993 712.8091626933324 2412.5034264298993 712.8091626933324 2412.3648584661873 712.4614732846113 2412.3648584661873 712.4614732846113 2411.554298987566 713.1793439161459 2411.554298987566 713.1793439161459 2411.553780487212 713.62268255645 2411.553780487212 713.62268255645 2411.225152057437 713.5265055120045 2411.225152057437 713.5265055120045 2410.706351812637 714.1252389921856 2410.706351812637 714.1252389921856 2410.554406944054 714.5924738393774 2410.554406944054 714.5924738393774 2410.5289651093603 714.8920281598787 2410.5289651093603 714.8920281598787 2410.389947236105 714.9878272456615 2410.389947236105 714.9878272456615 2410.07412819157 714.9637585456423 2410.07412819157 714.9637585456423 2409.7330022921406 715.2393149532924 2409.7330022921406 715.2393149532924 2409.467759909692 715.5029469566082 2409.467759909692 715.5029469566082 2409.177312256431 715.6228300696755 2409.177312256431 715.6228300696755 2408.394332082018 715.5992405744278 2408.394332082018 715.5992405744278 2409.0256420260566 715.2034720481386 2409.0256420260566 715.2034720481386 2409.290862887156 714.9397775270478 2409.290862887156 714.9397775270478 2409.6319775261336 714.6641399444231 2409.6319775261336 714.6641399444231 2409.568801771448 714.3046645107335 2409.568801771448 714.3046645107335 2409.3918558524174 714.1848562881287 2409.3918558524174 714.1848562881287 2408.469250848661 714.2571199644692 2408.469250848661 714.2571199644692 2408.254477947614 714.36511650799 2408.254477947614 714.36511650799 2407.8123024855354 714.5093053980577 2407.8123024855354 714.5093053980577 2407.73601994056 714.0780152594104 2407.73601994056 714.0780152594104 2408.329974846486 713.909727140425 2408.329974846486 713.909727140425 2408.7091786263054 713.8495769816484 2408.7091786263054 713.8495769816484 2409.4044598355003 713.8134011058694 2409.4044598355003 713.8134011058694 2410.023912956172 713.7894597103923 2410.023912956172 713.7894597103923 2410.112529331927 713.4060498237487 2410.112529331927 713.4060498237487 2409.4802629772125 712.9147334461142 2409.4802629772125 712.9147334461142 2408.9237061409003 712.8549618725347 2408.9237061409003 712.8549618725347 2408.506191485748 712.6994141205407 2408.506191485748 712.6994141205407 2409.0880284848236 712.4595017759794 2409.0880284848236 712.4595017759794 2410.3910214524103 712.7710968612985 2410.3910214524103 712.7710968612985 2410.542575366775 713.1905353188779 2410.542575366775 713.1905353188779 2411.3652746010284 712.5441101163344 2411.3652746010284 712.5441101163344 2411.682077906923 712.1250801427993 2411.682077906923 712.1250801427993 2410.9234284588847 711.3575608267014 2410.9234284588847 711.3575608267014 2409.974036682298 710.8419388810753 2409.974036682298 710.8419388810753 2409.061844609215 709.6558745944151 2409.061844609215 709.6558745944151 2408.820830031972 709.1767333019914 2408.820830031972 709.1767333019914 2408.3001518549854 708.0029375814954 2408.3001518549854 708.0029375814954 2408.0587067548076 706.7099542749256 2408.0587067548076 706.7099542749256 2407.9245332895407 705.9923270744617 2407.9245332895407 705.9923270744617 2407.8037903921486 705.3470823944416 2407.8037903921486 705.3470823944416 2408.043328470055 704.7924097427368 2408.043328470055 704.7924097427368 2408.767666959139 704.4564657774096 2408.767666959139 704.4564657774096 2408.9961404824276 703.5338973938667 2408.9961404824276 703.5338973938667 2408.672513520229 702.9659604715515 2408.672513520229 702.9659604715515 2408.440957620057 702.5598830106858 2408.440957620057 702.5598830106858 2408.2092834045734 702.1538344728835 2408.2092834045734 702.1538344728835 2407.302605865778 702.3971903190616 2407.302605865778 702.3971903190616 2406.7938144100517 702.6255455340009 2406.7938144100517 702.6255455340009 2406.3614987889737 702.8419233551674 2406.3614987889737 702.8419233551674 2405.9798396983833 702.9025592926198 2405.9798396983833 702.9025592926198 2405.559479147425 702.7477203787862 2405.559479147425 702.7477203787862 2405.3422081315034 702.4127808982084 2405.3422081315034 702.4127808982084 2405.826123183334 702.4835727391828 2405.826123183334 702.4835727391828 2406.169216329388 702.2073355383955 2406.169216329388 702.2073355383955 2406.741567554506 701.8948396855894 2406.741567554506 701.8948396855894 2407.0977921891695 701.690638924669 2407.0977921891695 701.690638924669 2407.046374301703 701.4031907866098 2407.046374301703 701.4031907866098 2405.7088554543416 701.3936287508218 2405.7088554543416 701.3936287508218 2405.3903352568063 701.3703908500245 2405.3903352568063 701.3703908500245 2404.676866100045 701.3362723460529 2404.676866100045 701.3362723460529 2404.3842701635976 701.456903321658 2404.3842701635976 701.456903321658 2404.270441421579 701.6968429045239 2404.270441421579 701.6968429045239 2404.0641715060574 700.9906348649176 2404.0641715060574 700.9906348649176 2404.4090000761435 700.800641596091 2404.4090000761435 700.800641596091 2404.8317054434656 700.5678928102674 2404.8317054434656 700.5678928102674 2405.3408027973815 700.2877988791487 2405.3408027973815 700.2877988791487 2405.7400916036927 700.0682903182769 2405.7400916036927 700.0682903182769 2406.115797254526 699.8618840513202 2406.115797254526 699.8618840513202 2406.5466916126466 699.9304071011263 2406.5466916126466 699.9304071011263 2407.605192985337 700.1325666858548 2407.605192985337 700.1325666858548 2407.8987615540577 700.455725855512 2407.8987615540577 700.455725855512 2408.2302302683283 700.5512774976546 2408.2302302683283 700.5512774976546 2408.4212018618796 700.2995528215672 2408.4212018618796 700.2995528215672 2408.2678693286725 699.8803537194156 2408.2678693286725 699.8803537194156 2406.71169618316 699.5347808807406 2406.71169618316 699.5347808807406" id="i am a detail" style="fill:#ff3388" /><polygon points="2407.243053553818 705.1407256143914 2406.1868854961654 704.4955123246857 2406.1868854961654 704.4955123246857 2403.7521222513915 702.7407383597767 2403.7521222513915 702.7407383597767 2402.8790226750957 700.9587446044804 2402.8790226750957 700.9587446044804 2402.4406829583118 699.8462670690458 2402.4406829583118 699.8462670690458 2401.9667059864237 699.404941708679 2401.9667059864237 699.404941708679 2401.402822917351 698.9042420050845 2401.402822917351 698.9042420050845 2400.994056895631 698.8222867510132 2400.994056895631 698.8222867510132 2399.8836117297296 698.7800155789093 2399.8836117297296 698.7800155789093 2399.50117452566 698.8420228592636 2399.50117452566 698.8420228592636 2398.902582814718 699.013207711859 2398.902582814718 699.013207711859 2397.738910706858 698.6850326600127 2397.738910706858 698.6850326600127 2397.698969791182 698.4696420860134 2397.698969791182 698.4696420860134 2397.5158771431984 697.9077604351916 2397.5158771431984 697.9077604351916 2397.2498339493513 698.1731421205413 2397.2498339493513 698.1731421205413 2397.306691854887 698.9035822254806 2397.306691854887 698.9035822254806 2397.8221033518053 699.5590769801097 2397.8221033518053 699.5590769801097 2397.533076835834 700.1240783249984 2397.533076835834 700.1240783249984 2396.0985916642767 700.8770574660856 2396.0985916642767 700.8770574660856 2395.50501507934 701.4926157541014 2395.50501507934 701.4926157541014 2394.974772803407 702.0239911156507 2394.974772803407 702.0239911156507 2394.4851043066315 702.770833828921 2394.4851043066315 702.770833828921 2394.0452406835807 703.3616332232091 2394.0452406835807 703.3616332232091 2394.892108237455 704.1092861287609 2394.892108237455 704.1092861287609 2395.3226709850555 703.8901646082867 2395.3226709850555 703.8901646082867 2395.7628510240334 703.2996764434515 2395.7628510240334 703.2996764434515 2395.7304869550862 703.970835752277 2395.7304869550862 703.970835752277 2395.4923687904975 704.3800280880614 2395.4923687904975 704.3800280880614 2395.0017202103245 706.3847203654323 2395.0017202103245 706.3847203654323 2395.009648020662 707.2712382159023 2395.009648020662 707.2712382159023 2395.701789686545 708.0445030095987 2395.701789686545 708.0445030095987 2396.3861244578584 707.9314998995811 2396.3861244578584 707.9314998995811 2396.5576789508623 707.1634682164238 2396.5576789508623 707.1634682164238 2396.70282477899 706.2518830857867 2396.70282477899 706.2518830857867 2396.898312934328 706.8854658089674 2396.898312934328 706.8854658089674 2396.5389814068626 709.607733938077 2396.5389814068626 709.607733938077 2396.862865084241 710.5159862455002 2396.862865084241 710.5159862455002 2397.5758036853163 710.9903150590426 2397.5758036853163 710.9903150590426 2398.3582527021263 710.5658728342598 2398.3582527021263 710.5658728342598 2398.9075096090305 709.2924915184949 2398.9075096090305 709.2924915184949 2399.066980931127 708.4528758484482 2399.066980931127 708.4528758484482 2399.5390075208006 708.8934556466724 2399.5390075208006 708.8934556466724 2399.7120696957713 710.2703218826139 2399.7120696957713 710.2703218826139 2401.060064986894 711.2338657040244 2401.060064986894 711.2338657040244 2401.6934184577676 711.2788742563268 2401.6934184577676 711.2788742563268 2402.0340515065886 711.0018235415184 2402.0340515065886 711.0018235415184 2402.454514530517 711.5991657153523 2402.454514530517 711.5991657153523 2403.733691782225 711.7622380592659 2403.733691782225 711.7622380592659 2404.3524714161076 711.2930260832068 2404.3524714161076 711.2930260832068 2404.5918211137255 710.8849686792544 2404.5918211137255 710.8849686792544 2405.3139626057346 710.9909129758229 2405.3139626057346 710.9909129758229 2405.580324542244 711.1700105845969 2405.580324542244 711.1700105845969 2405.8328121224467 710.833978675077 2405.8328121224467 710.833978675077 2406.009421933102 710.5101184763827 2406.009421933102 710.5101184763827 2406.9219175249937 710.8080330867131 2406.9219175249937 710.8080330867131 2407.4409634059275 710.6515641836937 2407.4409634059275 710.6515641836937 2407.921887021633 710.2796214812554 2407.921887021633 710.2796214812554 2408.4663212116425 709.8239009097575 2408.4663212116425 709.8239009097575 2408.6308252229987 709.4284289968869 2408.6308252229987 709.4284289968869 2407.982981340784 707.9792418185939 2407.982981340784 707.9792418185939 2407.4973600191465 705.2482263811878 2407.4973600191465 705.2482263811878 2407.243053553818 705.1407256143914 2407.243053553818 705.1407256143914" id="i am a detail" style="fill:#ff3388" /><polygon points="2459.4657654062944 648.8533988044853 2457.2819247266743 654.5815918939513 2457.2819247266743 654.5815918939513 2445.231594426527 660.6839132979309 2445.231594426527 660.6839132979309 2424.4598800542853 667.2106951794071 2424.4598800542853 667.2106951794071 2430.326301838201 672.7404232985673 2430.326301838201 672.7404232985673 2438.18175748536 672.5496937634762 2438.18175748536 672.5496937634762 2452.0729764575644 792.6958817979298 2452.0729764575644 792.6958817979298 2446.2287546718844 802.7426754951114 2446.2287546718844 802.7426754951114 2443.8041396810895 804.9422807231321 2443.8041396810895 804.9422807231321 2472.995770694912 802.7797298404671 2472.995770694912 802.7797298404671 2476.6097077033105 795.8751646682032 2476.6097077033105 795.8751646682032 2470.892249950998 794.7625796339344 2470.892249950998 794.7625796339344 2458.9907486392867 652.549922556759 2458.9907486392867 652.549922556759 2459.4657654062944 648.8533988044853 2459.4657654062944 648.8533988044853" id="i am a detail" style="fill:#ff3388" /></g></svg>