<svg width="3600" height="1800" xmlns="http://www.w3.org/2000/svg"><rect width="3600" height="1800" style="fill:none;" /><g id="Continents"><polygon points="1800 600 1815.4651261369881 880.2235807189232 1815.4651261369881 880.2235807189232 1800 900 1800 900 1814.9616076490722 879.70438819395 1814.9616076490722 879.70438819395 2100 900 2100 900 2100 600 2100 600 1800 600 1800 600" id="Continent 300" style="fill:#f435ef" /><polygon points="1500 900 1800 900 1800 900 1800 1200 1800 1200 1637.3391109524596 1050.9826444626526 1637.3391109524596 1050.9826444626526 1500 900 1500 900" id="Continent 200" style="fill:#f435ef" /><polygon points="1800.0897883098285 900.0259094372349 1949.5842549775637 902.2455137934638 1949.5842549775637 902.2455137934638 1949.9920969742504 856.8089699102236 1949.9920969742504 856.8089699102236 1956.404816366405 902.344269907923 1956.404816366405 902.344269907923 2280.342659617222 906.4163487998733 2280.342659617222 906.4163487998733 2186.89405479417 1086.3914395701952 2186.89405479417 1086.3914395701952 2100.3675688469007 1079.4693206944137 2100.3675688469007 1079.4693206944137 1800.0897883098285 900.0259094372349 1800.0897883098285 900.0259094372349" id="subcontinent" style="fill:#f435ef" /><polygon points="1800.489734170223 1505.1897485407815 1789.8779580343623 903.8130937500198 1789.8779580343623 903.8130937500198 1800.489734170223 300.77212410527073 1800.489734170223 300.77212410527073 1821.1368934462603 300.77212410527073 1821.1368934462603 300.77212410527073 1840.6120996340712 853.0789521503106 1840.6120996340712 853.0789521503106 1828.0192798716062 1498.3073621154358 1828.0192798716062 1498.3073621154358 1803.930927382896 1505.1897485407815 1803.930927382896 1505.1897485407815 1800.489734170223 1505.1897485407815 1800.489734170223 1505.1897485407815" id="marker" style="fill:#f435ef" /><polygon points="2288.0264294667854 906.1662387923709 2295.0556265470773 1204.9071147047787 2295.0556265470773 1204.9071147047787 2400.4935827514564 1201.3925161646332 2400.4935827514564 1201.3925161646332 2360.078139742115 1107.6673529261072 2360.078139742115 1107.6673529261072 2385.7967431951006 1096.7621520496746 2385.7967431951006 1096.7621520496746 2357.3649381673436 1100.82470739078 2357.3649381673436 1100.82470739078 2288.026429466785 909.6808373325168 2288.026429466785 909.6808373325168 2288.0264294667854 906.1662387923709 2288.0264294667854 906.1662387923709" id="marker1" style="fill:#f435ef" /><polygon points="1867.749138484054 836.5499867898956 1873.1062811450383 836.624884974671 1873.1062811450383 836.624884974671 1876.576088635979 832.7355504653312 1876.576088635979 832.7355504653312 1878.715476837847 828.825433216146 1878.715476837847 828.825433216146 1880.2144403159864 824.2463895291087 1880.2144403159864 824.2463895291087 1881.701181172659 820.3217752491797 1881.701181172659 820.3217752491797 1887.878958161997 817.7813277910792 1887.878958161997 817.7813277910792 1891.9149300198483 818.5010149724551 1891.9149300198483 818.5010149724551 1893.7255428688359 872.9685363896926 1893.7255428688359 872.9685363896926 1894.0094280842732 909.643097016261 1894.0094280842732 909.643097016261 1905.4443753917167 916.3827373912395 1905.4443753917167 916.3827373912395 1914.9194119869528 919.8207000707963 1914.9194119869528 919.8207000707963 1921.0311121259124 919.9253454444267 1921.0311121259124 919.9253454444267 1923.7622046887473 922.5982137891243 1923.7622046887473 922.5982137891243 1921.7352695095294 925.8458487804194 1921.7352695095294 925.8458487804194 1849.3269649061901 924.1003167888631 1849.3269649061901 924.1003167888631 1849.3307588227892 920.8179321286128 1849.3307588227892 920.8179321286128 1855.957910756104 920.9033302450316 1855.957910756104 920.9033302450316 1862.5994226815362 919.0230252954257 1862.5994226815362 919.0230252954257 1868.5904014450844 915.8250373296091 1868.5904014450844 915.8250373296091 1875.9301816986497 911.9942896026976 1875.9301816986497 911.9942896026976 1877.9385966519021 910.0565716873623 1877.9385966519021 910.0565716873623 1879.6473657024394 842.6234918906255 1879.6473657024394 842.6234918906255 1869.6335657931022 841.1689130736256 1869.6335657931022 841.1689130736256 1868.4003913373474 837.2152628961951 1868.4003913373474 837.2152628961951 1867.749138484054 836.5499867898956 1867.749138484054 836.5499867898956" id="i am a detail" style="fill:#f435ef" /><polygon points="1881.8668698740535 784.6579290107223 1878.241171318119 789.2463144079994 1878.241171318119 789.2463144079994 1877.3225775061953 794.5300441299479 1877.3225775061953 794.5300441299479 1878.4211825104583 800.4963731275925 1878.4211825104583 800.4963731275925 1882.1550981885568 808.4717887383945 1882.1550981885568 808.4717887383945 1885.5134019336404 809.1810252338429 1885.5134019336404 809.1810252338429 1890.2593589859023 809.2526244985747 1890.2593589859023 809.2526244985747 1893.7710714867653 806.6681432730117 1893.7710714867653 806.6681432730117 1894.0132512925802 801.3904246243144 1894.0132512925802 801.3904246243144 1892.8393218434771 797.4068854660245 1892.8393218434771 797.4068854660245 1890.3054607989975 793.3987469819683 1890.3054607989975 793.3987469819683 1887.7409808152925 790.0489860024128 1887.7409808152925 790.0489860024128 1885.8596695381116 786.7068630157279 1885.8596695381116 786.7068630157279 1882.4831939593178 785.993659293374 1882.4831939593178 785.993659293374 1881.8668698740535 784.6579290107223 1881.8668698740535 784.6579290107223" id="i am a detail" style="fill:#f435ef" /><polygon points="1969.6506558895805 823.77995548787 1964.5775169932188 827.9872892123394 1964.5775169932188 827.9872892123394 1962.2837627440479 834.6780909000179 1962.2837627440479 834.6780909000179 1964.006662347016 842.4681792060164 1964.006662347016 842.4681792060164 1969.9529649923315 842.8176210321238 1969.9529649923315 842.8176210321238 1971.200885610132 841.4409071858008 1971.200885610132 841.4409071858008 1974.3566024709546 838.6537146943731 1974.3566024709546 838.6537146943731 1979.9585234125095 831.8015964621227 1979.9585234125095 831.8015964621227 1980.9930618056978 825.8338399993409 1980.9930618056978 825.8338399993409 1983.4467557512676 821.7639936714206 1983.4467557512676 821.7639936714206 1985.3673636163444 820.3517679203288 1985.3673636163444 820.3517679203288 1997.8751068611793 818.4164818387071 1997.8751068611793 818.4164818387071 2003.863483897167 818.782918498411 2003.863483897167 818.782918498411 2006.5682578151484 819.9681882320141 2006.5682578151484 819.9681882320141 2007.9745440050128 821.8739511601656 2007.9745440050128 821.8739511601656 2013.5687585954372 828.8372472624553 2013.5687585954372 828.8372472624553 2013.896550368488 836.7023885592359 2013.896550368488 836.7023885592359 2014.0639284663237 840.6322282434539 2014.0639284663237 840.6322282434539 2013.5737614423651 844.5919715477555 2013.5737614423651 844.5919715477555 2005.269745741639 850.8937131419407 2005.269745741639 850.8937131419407 1983.8670752917978 857.851265263912 1983.8670752917978 857.851265263912 1975.5729846225881 862.8597705922231 1975.5729846225881 862.8597705922231 1967.2821171419746 880.3253542920886 1967.2821171419746 880.3253542920886 1962.5247106985112 902.2107881715937 1962.5247106985112 902.2107881715937 1968.9570965602393 912.3802455821058 1968.9570965602393 912.3802455821058 1978.4949854695367 919.1187539407575 1978.4949854695367 919.1187539407575 1996.8975337144705 919.5092193503916 1996.8975337144705 919.5092193503916 2013.0789004982225 914.7762673746331 2013.0789004982225 914.7762673746331 2020.6050168449349 907.8488965238445 2020.6050168449349 907.8488965238445 2024.2347864732083 901.7704437098463 2024.2347864732083 901.7704437098463 2024.0282726018133 897.843960786329 2024.0282726018133 897.843960786329 2020.2552494695892 901.3021557480452 2020.2552494695892 901.3021557480452 2000.9527901349338 909.4533853232381 2000.9527901349338 909.4533853232381 1991.1283335879214 909.9396844421201 1991.1283335879214 909.9396844421201 1985.0992825739772 907.6157010688415 1985.0992825739772 907.6157010688415 1981.6557401018952 904.5076991673159 1981.6557401018952 904.5076991673159 1980.0388149617038 898.6845220454201 1980.0388149617038 898.6845220454201 1984.527549578524 884.03283254811 1984.527549578524 884.03283254811 2007.009577003923 873.7478445788405 2007.009577003923 873.7478445788405 2018.5006736896514 865.9897857777398 2018.5006736896514 865.9897857777398 2022.8727017559472 860.5413198106344 2022.8727017559472 860.5413198106344 2026.2615664951807 914.8074164758855 2026.2615664951807 914.8074164758855 2023.8494455185323 918.8646800420526 2023.8494455185323 918.8646800420526 2035.084466140568 918.9982622188325 2035.084466140568 918.9982622188325 2036.9886371923058 917.5956650609145 2036.9886371923058 917.5956650609145 2033.2523080092335 909.8833361161713 2033.2523080092335 909.8833361161713 2033.014597419422 850.2381445177652 2033.014597419422 850.2381445177652 2032.5426951704342 820.718257087877 2032.5426951704342 820.718257087877 2024.9157056639322 812.5155118589834 2024.9157056639322 812.5155118589834 2000.828154634451 809.7097801024888 2000.828154634451 809.7097801024888 1989.6395212954026 812.2369260635093 1989.6395212954026 812.2369260635093 1984.371482219061 813.1584622371363 1984.371482219061 813.1584622371363 1970.9698762990408 823.7123277395513 1970.9698762990408 823.7123277395513 1969.6506558895805 823.77995548787 1969.6506558895805 823.77995548787" id="i am a detail" style="fill:#f435ef" /><polygon points="2040.7453728473913 820.028640953074 2047.7643121224623 817.2870242264061 2047.7643121224623 817.2870242264061 2052.0074531684168 813.5337760947384 2052.0074531684168 813.5337760947384 2052.886742657203 809.4836878958552 2052.886742657203 809.4836878958552 2058.017198983434 807.6171034669123 2058.017198983434 807.6171034669123 2062.634424331374 807.1282516227086 2062.634424331374 807.1282516227086 2070.100897241693 808.323556236902 2070.100897241693 808.323556236902 2072.6355367820333 813.3318034180752 2072.6355367820333 813.3318034180752 2073.1207650831025 817.8921872814792 2073.1207650831025 817.8921872814792 2084.880257827089 809.4402579772309 2084.880257827089 809.4402579772309 2093.257099780129 806.6209247409925 2093.257099780129 806.6209247409925 2101.118109596829 805.1834646285664 2101.118109596829 805.1834646285664 2114.057170947612 807.8786532462611 2114.057170947612 807.8786532462611 2116.4739541534896 812.2549546218308 2116.4739541534896 812.2549546218308 2117.505818697016 816.104433613117 2117.505818697016 816.104433613117 2130.24604994565 809.6430812925771 2130.24604994565 809.6430812925771 2137.424052862547 807.6669828417077 2137.424052862547 807.6669828417077 2143.3461276022326 806.472341496212 2143.3461276022326 806.472341496212 2154.7754203495324 806.7723509931476 2154.7754203495324 806.7723509931476 2164.151207294972 814.5054914119095 2164.151207294972 814.5054914119095 2166.1967233611017 822.8723495251893 2166.1967233611017 822.8723495251893 2168.671228414829 858.1432905102987 2168.671228414829 858.1432905102987 2167.5940570563075 901.0969344067148 2167.5940570563075 901.0969344067148 2172.7990864522835 912.5757156058313 2172.7990864522835 912.5757156058313 2179.6856025141115 914.6443888380826 2179.6856025141115 914.6443888380826 2142.1268371216543 917.3007895348009 2142.1268371216543 917.3007895348009 2152.1267518963414 911.741434172503 2152.1267518963414 911.741434172503 2152.1757924798926 886.5965078792826 2152.1757924798926 886.5965078792826 2149.891418349631 856.5017833370214 2149.891418349631 856.5017833370214 2149.752593575168 833.5085303094731 2149.752593575168 833.5085303094731 2146.3096094746384 817.3860482499933 2146.3096094746384 817.3860482499933 2139.8784553989676 812.7060372544987 2139.8784553989676 812.7060372544987 2134.5759398950845 813.1905374853436 2134.5759398950845 813.1905374853436 2128.076469340016 815.107724746035 2128.076469340016 815.107724746035 2123.754566319276 818.8013474216127 2123.754566319276 818.8013474216127 2119.444884265166 822.4975146802034 2119.444884265166 822.4975146802034 2118.9359640545254 910.2029900903939 2118.9359640545254 910.2029900903939 2126.943328553052 917.3973475475613 2126.943328553052 917.3973475475613 2133.1042758676404 919.4711443601386 2133.1042758676404 919.4711443601386 2092.307395495989 920.1549839217945 2092.307395495989 920.1549839217945 2103.5593417758237 914.3691965427901 2103.5593417758237 914.3691965427901 2103.2369558439395 898.5005510923584 2103.2369558439395 898.5005510923584 2102.9631155931297 856.980665856661 2102.9631155931297 856.980665856661 2103.9017849213496 826.6303147383893 2103.9017849213496 826.6303147383893 2100.3008619498332 817.1155447427702 2100.3008619498332 817.1155447427702 2095.2330038325767 813.0099792185197 2095.2330038325767 813.0099792185197 2089.8952592809587 812.8856342454505 2089.8952592809587 812.8856342454505 2084.101667141385 814.7885362520349 2084.101667141385 814.7885362520349 2076.2323404196477 822.1791996039929 2076.2323404196477 822.1791996039929 2074.6054770791998 825.6389785726998 2074.6054770791998 825.6389785726998 2074.293701397979 911.4022764594288 2074.293701397979 911.4022764594288 2081.030291901642 919.325374015931 2081.030291901642 919.325374015931 2087.2310764153817 922.0055551162197 2087.2310764153817 922.0055551162197 2049.545219734517 920.7048459913306 2049.545219734517 920.7048459913306 2057.0893512496227 910.5888460108475 2057.0893512496227 910.5888460108475 2059.7063286154576 878.5723266665996 2059.7063286154576 878.5723266665996 2062.7198574099643 826.2253916236403 2062.7198574099643 826.2253916236403 2060.126718398267 814.6441326153234 2060.126718398267 814.6441326153234 2056.2488848800776 815.7157180434132 2056.2488848800776 815.7157180434132 2051.7866860417853 817.5118674567216 2051.7866860417853 817.5118674567216 2044.7681923323037 820.2482968873612 2044.7681923323037 820.2482968873612 2037.1531603630613 817.7867565551741 2037.1531603630613 817.7867565551741 2031.740532706625 805.8518720586012 2031.740532706625 805.8518720586012 2030.1390250400173 798.1042077699312 2030.1390250400173 798.1042077699312 2041.2604472117478 784.3160686037481 2041.2604472117478 784.3160686037481 2045.761234848345 782.5041512845685 2045.761234848345 782.5041512845685 2052.639347354535 783.7514152910501 2052.639347354535 783.7514152910501 2058.4737415688314 787.7615224944325 2058.4737415688314 787.7615224944325 2059.3575006574574 789.6512611106584 2059.3575006574574 789.6512611106584 2058.9143044515404 791.6807182765866 2058.9143044515404 791.6807182765866 2056.999652531264 792.5444248054737 2056.999652531264 792.5444248054737 2055.600485797759 792.0324015546628 2055.600485797759 792.0324015546628 2054.7151239211066 790.1439469890831 2054.7151239211066 790.1439469890831 2053.828288693697 788.2550971570275 2053.828288693697 788.2550971570275 2050.132194476069 785.3431912168539 2050.132194476069 785.3431912168539 2047.4744978856284 785.6288850888295 2047.4744978856284 785.6288850888295 2044.0749852593162 785.3343649289127 2044.0749852593162 785.3343649289127 2042.2361071869343 786.8573725294767 2042.2361071869343 786.8573725294767 2040.122799242352 791.7175914697283 2040.122799242352 791.7175914697283 2036.0250756981732 796.7933523165113 2036.0250756981732 796.7933523165113 2036.291374100611 804.6892277859093 2036.291374100611 804.6892277859093 2039.563204910673 815.5441494056331 2039.563204910673 815.5441494056331 2040.6708652483476 819.3777582082066 2040.6708652483476 819.3777582082066 2040.7453728473913 820.028640953074 2040.7453728473913 820.028640953074" id="i am a detail" style="fill:#f435ef" /><polygon points="2195.305800334578 1009.7405366928502 2192.208183607153 1005.2524512746733 2192.208183607153 1005.2524512746733 2186.0755081968687 999.2677928287842 2186.0755081968687 999.2677928287842 2179.993190050936 997.0142299672464 2179.993190050936 997.0142299672464 2175.4437878768886 996.253749812814 2175.4437878768886 996.253749812814 2170.144621504056 996.9798714497222 2170.144621504056 996.9798714497222 2162.5752888981033 999.9299186935274 2162.5752888981033 999.9299186935274 2154.2278625977874 1008.0997259137403 2154.2278625977874 1008.0997259137403 2151.153771802768 1021.556198669907 2151.153771802768 1021.556198669907 2149.5973312866427 1033.5574632840855 2149.5973312866427 1033.5574632840855 2152.6528714202723 1050.912430766509 2152.6528714202723 1050.912430766509 2159.6424199332478 1061.5514262954566 2159.6424199332478 1061.5514262954566 2165.8770662959255 1064.618587063418 2165.8770662959255 1064.618587063418 2170.553126547903 1065.3986216226251 2170.553126547903 1065.3986216226251 2176.7946403234187 1066.1806224084125 2176.7946403234187 1066.1806224084125 2184.594467785473 1066.2006998011746 2184.594467785473 1066.2006998011746 2190.8254848667643 1065.450825514205 2190.8254848667643 1065.450825514205 2195.425500298557 1061.6611954720595 2195.425500298557 1061.6611954720595 2186.0713135248498 1061.6517417949774 2186.0713135248498 1061.6517417949774 2177.4996868480907 1060.873184908065 2177.4996868480907 1060.873184908065 2168.911936287212 1056.2974197200597 2168.911936287212 1056.2974197200597 2164.9868923858767 1047.9658146623158 2164.9868923858767 1047.9658146623158 2164.9169670487477 1033.6532223248403 2164.9169670487477 1033.6532223248403 2165.637721576441 1020.8946249395489 2165.637721576441 1020.8946249395489 2167.8911250487026 1008.925223797753 2167.8911250487026 1008.925223797753 2175.4723704773555 1004.4697962284512 2175.4723704773555 1004.4697962284512 2183.825793284961 1003.7455711827346 2183.825793284961 1003.7455711827346 2188.4203820376247 1007.4911020485473 2188.4203820376247 1007.4911020485473 2192.286057770921 1012.7317776590301 2192.286057770921 1012.7317776590301 2193.9273781924066 1021.7217312124385 2193.9273781924066 1021.7217312124385 2194.8042791039697 1029.2259040805893 2194.8042791039697 1029.2259040805893 2197.134071141562 1067.7319707508277 2197.134071141562 1067.7319707508277 2219.954678796507 1069.2115011642318 2219.954678796507 1069.2115011642318 2214.9976047216965 1062.3950181487337 2214.9976047216965 1062.3950181487337 2215.3373816085173 935.1895384077216 2215.3373816085173 935.1895384077216 2225.940736608786 923.2318212990241 2225.940736608786 923.2318212990241 2196.577739545128 924.0425826569758 2196.577739545128 924.0425826569758 2194.493796423366 1005.2538478352985 2194.493796423366 1005.2538478352985 2195.305800334578 1009.7405366928502 2195.305800334578 1009.7405366928502" id="i am a detail" style="fill:#f435ef" /><polygon points="2268.0054415730383 1021.6891112486476 2248.729459764898 1031.7763983128434 2248.729459764898 1031.7763983128434 2245.035811848011 1034.239989532875 2245.035811848011 1034.239989532875 2245.159452685818 1036.5100174618622 2245.159452685818 1036.5100174618622 2247.4959902115593 1037.1498053500773 2247.4959902115593 1037.1498053500773 2262.4240980427257 1030.3081454874202 2262.4240980427257 1030.3081454874202 2270.481032244478 1024.5827938139028 2270.481032244478 1024.5827938139028 2295.486272973262 1010.3918540285936 2295.486272973262 1010.3918540285936 2314.740180928477 992.0137419674361 2314.740180928477 992.0137419674361 2317.120161144434 982.8765905411809 2317.120161144434 982.8765905411809 2318.208263891558 976.8215443764211 2318.208263891558 976.8215443764211 2307.341038790374 961.7299743367512 2307.341038790374 961.7299743367512 2298.3641615894317 962.9781194088253 2298.3641615894317 962.9781194088253 2290.1487079353983 964.1785439908767 2290.1487079353983 964.1785439908767 2289.7211260934646 969.4339239291107 2289.7211260934646 969.4339239291107 2297.1440608810344 967.5297625985468 2297.1440608810344 967.5297625985468 2302.458656880432 967.9820367086087 2302.458656880432 967.9820367086087 2306.269586291677 979.7419078327688 2306.269586291677 979.7419078327688 2306.8918166686913 988.7025969394722 2306.8918166686913 988.7025969394722 2300.1618630780217 1001.0970184538644 2300.1618630780217 1001.0970184538644 2292.235582386734 1007.5561128663935 2292.235582386734 1007.5561128663935 2282.6716660958564 1012.59936833329 2282.6716660958564 1012.59936833329 2274.5513145791624 1004.7495322857122 2274.5513145791624 1004.7495322857122 2266.531100399504 997.6576088433671 2266.531100399504 997.6576088433671 2256.5501538347617 995.1778756788354 2256.5501538347617 995.1778756788354 2245.9969333864783 995.7232433379085 2245.9969333864783 995.7232433379085 2234.0476846177826 998.5820126278347 2234.0476846177826 998.5820126278347 2225.995818882494 1004.2434775489637 2225.995818882494 1004.2434775489637 2220.3886592044128 1014.3051747999789 2220.3886592044128 1014.3051747999789 2220.5368179863026 1034.7058539433137 2220.5368179863026 1034.7058539433137 2219.728655401734 1051.4743950214925 2219.728655401734 1051.4743950214925 2232.575245492248 1061.5418131843778 2232.575245492248 1061.5418131843778 2235.980005358344 1067.5078879910743 2235.980005358344 1067.5078879910743 2246.9747055651405 1069.257442109728 2246.9747055651405 1069.257442109728 2260.908125815426 1067.770086100497 2260.908125815426 1067.770086100497 2271.6741970130656 1065.6672495476766 2271.6741970130656 1065.6672495476766 2279.8220280919813 1059.861624896123 2279.8220280919813 1059.861624896123 2285.334061793162 1050.3844383192834 2285.334061793162 1050.3844383192834 2286.1492395037308 1040.4317696465876 2286.1492395037308 1040.4317696465876 2287.2443040238923 1034.2923209069406 2287.2443040238923 1034.2923209069406 2290.9090463318935 1031.8158528575364 2290.9090463318935 1031.8158528575364 2293.7120120063046 1032.0952362823386 2293.7120120063046 1032.0952362823386 2293.801796515771 1033.5082047955993 2293.801796515771 1033.5082047955993 2293.3773873742452 1034.4787237786686 2293.3773873742452 1034.4787237786686 2292.393718365284 1034.299920661708 2292.393718365284 1034.299920661708 2292.1218763055213 1033.8430099486059 2292.1218763055213 1033.8430099486059 2291.18286043962 1034.3703676520652 2291.18286043962 1034.3703676520652 2291.983543872977 1035.5058223583187 2291.983543872977 1035.5058223583187 2293.224968961667 1035.9061170520258 2293.224968961667 1035.9061170520258 2293.709660545444 1035.8776604333138 2293.709660545444 1035.8776604333138 2294.89112116366 1035.3351171957684 2294.89112116366 1035.3351171957684 2295.315051719689 1034.3643315536215 2295.315051719689 1034.3643315536215 2296.2839200726607 1034.306659392373 2296.2839200726607 1034.306659392373 2297.602823111251 1035.8826656569468 2297.602823111251 1035.8826656569468 2298.1805997846136 1037.2666448509171 2298.1805997846136 1037.2666448509171 2298.25830538962 1038.4443739630624 2298.25830538962 1038.4443739630624 2297.365069558787 1039.6805659922206 2297.365069558787 1039.6805659922206 2296.0006723611964 1041.181137206741 2296.0006723611964 1041.181137206741 2294.816647366763 1041.7243519364824 2294.816647366763 1041.7243519364824 2293.601837278265 1041.7958280504372 2293.601837278265 1041.7958280504372 2291.6731654747728 1042.1448097262594 2291.6731654747728 1042.1448097262594 2290.0315793221616 1043.1856431468864 2290.0315793221616 1043.1856431468864 2289.8329233276954 1043.9066713469085 2289.8329233276954 1043.9066713469085 2289.66380749707 1045.0991782825668 2289.66380749707 1045.0991782825668 2292.476145107642 1047.0663873767317 2292.476145107642 1047.0663873767317 2293.9832927435787 1047.6883384780494 2293.9832927435787 1047.6883384780494 2295.201320125115 1047.6166669649103 2295.201320125115 1047.6166669649103 2294.6678471060527 1046.938140029884 2294.6678471060527 1046.938140029884 2294.1347624357422 1046.2595623191137 2294.1347624357422 1046.2595623191137 2294.5141514686875 1044.5809637295183 2294.5141514686875 1044.5809637295183 2295.911901881369 1043.5519706443765 2295.911901881369 1043.5519706443765 2297.8260382207186 1042.9645448868762 2297.8260382207186 1042.9645448868762 2299.1745319263136 1041.2273151356808 2299.1745319263136 1041.2273151356808 2299.8402791890185 1040.240772225667 2299.8402791890185 1040.240772225667 2300.004259125566 1039.048173886917 2300.004259125566 1039.048173886917 2299.9255737694884 1037.870440557498 2299.9255737694884 1037.870440557498 2299.588943733956 1036.4720259016012 2299.588943733956 1036.4720259016012 2301.576436006331 1037.0600739438653 2301.576436006331 1037.0600739438653 2302.8053326608147 1037.2208634556578 2302.8053326608147 1037.2208634556578 2304.0023239863986 1036.910137313623 2304.0023239863986 1036.910137313623 2305.1829444432324 1036.3634465827358 2305.1829444432324 1036.3634465827358 2306.136948589605 1036.067052878352 2306.136948589605 1036.067052878352 2307.107204056986 1036.0058237344513 2307.107204056986 1036.0058237344513 2307.8843544663077 1036.6661002518085 2307.8843544663077 1036.6661002518085 2307.900848847664 1036.9015764409394 2307.900848847664 1036.9015764409394 2307.9834699973835 1038.0790122387489 2307.9834699973835 1038.0790122387489 2307.530899652868 1038.5808218859438 2307.530899652868 1038.5808218859438 2307.061700410411 1038.8470637729795 2307.061700410411 1038.8470637729795 2306.3167362557715 1038.6574956497655 2306.3167362557715 1038.6574956497655 2306.2839608123472 1038.186472448232 2306.2839608123472 1038.186472448232 2305.588276650272 1038.7032608425816 2305.588276650272 1038.7032608425816 2305.620943275356 1039.1743093067032 2305.620943275356 1039.1743093067032 2305.896563550951 1039.630132184504 2305.896563550951 1039.630132184504 2306.3988446871467 1039.8351227191395 2306.3988446871467 1039.8351227191395 2307.370661981796 1039.773791179906 2307.370661981796 1039.773791179906 2307.6136245017274 1039.7584084553241 2307.6136245017274 1039.7584084553241 2306.9508080100914 1040.746659087646 2306.9508080100914 1040.746659087646 2306.2381260949487 1041.0281436448033 2306.2381260949487 1041.0281436448033 2305.508932195613 1041.0738976031203 2305.508932195613 1041.0738976031203 2305.233153098848 1040.6179882042738 2305.233153098848 1040.6179882042738 2304.9412128862486 1039.9265220746029 2304.9412128862486 1039.9265220746029 2304.5204254224504 1040.8990563019083 2304.5204254224504 1040.8990563019083 2304.5530148931293 1041.3701954983153 2304.5530148931293 1041.3701954983153 2304.845120330079 1042.0617790431866 2304.845120330079 1042.0617790431866 2305.3478426882357 1042.2669874855046 2305.3478426882357 1042.2669874855046 2305.8671704801363 1042.707704418764 2305.8671704801363 1042.707704418764 2306.8235682964105 1042.410949575083 2306.8235682964105 1042.410949575083 2306.8733508973482 1043.1177144904423 2306.8733508973482 1043.1177144904423 2306.419888418684 1043.61955319921 2306.419888418684 1043.61955319921 2305.7063667151406 1043.9009771267895 2305.7063667151406 1043.9009771267895 2305.2031899611907 1043.6958009152088 2305.2031899611907 1043.6958009152088 2304.7001366019194 1043.4905429607888 2304.7001366019194 1043.4905429607888 2304.4404774860827 1043.2700768181426 2304.4404774860827 1043.2700768181426 2303.7106714290653 1043.3153963449236 2303.7106714290653 1043.3153963449236 2303.7595484944227 1044.0222681016667 2303.7595484944227 1044.0222681016667 2305.5455542354657 1045.0943665680713 2305.5455542354657 1045.0943665680713 2304.571619898185 1045.1551253810019 2304.571619898185 1045.1551253810019 2306.292652201976 1045.2842290986227 2306.292652201976 1045.2842290986227 2307.023238139488 1045.2382652873828 2307.023238139488 1045.2382652873828 2306.686411862678 1047.389916314916 2306.686411862678 1047.389916314916 2304.248939952315 1047.5421833760033 2304.248939952315 1047.5421833760033 2302.6401100883054 1045.5113508942036 2302.6401100883054 1045.5113508942036 2302.559057664235 1044.3330680199335 2302.559057664235 1044.3330680199335 2302.68914578401 1042.668694054868 2302.68914578401 1042.668694054868 2303.09462391079 1041.4606963587037 2303.09462391079 1041.4606963587037 2303.69418681933 1039.629760855801 2303.69418681933 1039.629760855801 2304.4036166816254 1038.518630694895 2304.4036166816254 1038.518630694895 2302.7240910827704 1039.2325080287476 2302.7240910827704 1039.2325080287476 2301.1442615236638 1043.7506966675296 2301.1442615236638 1043.7506966675296 2301.4772224899766 1046.32284902503 2301.4772224899766 1046.32284902503 2302.4401875850526 1048.8570494220007 2302.4401875850526 1048.8570494220007 2304.3792284106594 1049.5001949896175 2304.3792284106594 1049.5001949896175 2305.9298110806467 1049.0983850849293 2305.9298110806467 1049.0983850849293 2307.154867419235 1048.5637065436072 2307.154867419235 1048.5637065436072 2308.3755343547223 1050.1651493340673 2308.3755343547223 1050.1651493340673 2309.3351367008613 1050.9838247931898 2309.3351367008613 1050.9838247931898 2309.499014916572 1051.9176642743876 2309.499014916572 1051.9176642743876 2309.5322888447395 1052.3877929988967 2309.5322888447395 1052.3877929988967 2309.565581008782 1052.8579256127778 2309.565581008782 1052.8579256127778 2309.9314432511264 1053.872959031863 2309.9314432511264 1053.872959031863 2310.146551794096 1054.142173159822 2310.146551794096 1054.142173159822 2310.36171804072 1054.4113694834757 2310.36171804072 1054.4113694834757 2310.570227830013 1054.5865199957793 2310.570227830013 1054.5865199957793 2311.0647090048424 1054.6482106813753 2311.0647090048424 1054.6482106813753 2311.5592241929958 1054.7097978298284 2311.5592241929958 1054.7097978298284 2312.046991632465 1054.6772573672001 2312.046991632465 1054.6772573672001 2312.124189344857 1054.3886671697505 2312.124189344857 1054.3886671697505 2312.01309351667 1054.2071402524994 2312.01309351667 1054.2071402524994 2311.330370223287 1054.2526583283827 2311.330370223287 1054.2526583283827 2311.0310349355077 1054.1780798549996 2311.0310349355077 1054.1780798549996 2310.5098333360097 1053.7402768205525 2310.5098333360097 1053.7402768205525 2310.392218027972 1053.4646508796225 2310.392218027972 1053.4646508796225 2310.267941991802 1053.0949953104487 2310.267941991802 1053.0949953104487 2310.227797697462 1052.5308458178304 2310.227797697462 1052.5308458178304 2310.083572233852 1051.8791172191177 2310.083572233852 1051.8791172191177 2310.043512264204 1051.3149777341237 2310.043512264204 1051.3149777341237 2310.127555058194 1051.1204959653353 2310.127555058194 1051.1204959653353 2310.0941780575354 1050.650385832636 2310.0941780575354 1050.650385832636 2309.6847344032894 1050.3940330706164 2309.6847344032894 1050.3940330706164 2308.9568678783717 1049.7807046984005 2308.9568678783717 1049.7807046984005 2308.3201451825466 1049.0667691736896 2308.3201451825466 1049.0667691736896 2308.092653240598 1048.6093612512857 2308.092653240598 1048.6093612512857 2308.079501272943 1048.4213109487341 2308.079501272943 1048.4213109487341 2310.128712645544 1048.3809697329932 2310.128712645544 1048.3809697329932 2311.705031438649 1048.559498575223 2311.705031438649 1048.559498575223 2313.046313846217 1048.185971326354 2313.046313846217 1048.185971326354 2314.6308120456915 1047.1337221183237 2314.6308120456915 1047.1337221183237 2315.2285889998525 1045.9590696757205 2315.2285889998525 1045.9590696757205 2315.5627238028537 1043.8575027125669 2315.5627238028537 1043.8575027125669 2315.646686555429 1042.340025896631 2315.646686555429 1042.340025896631 2315.5298732177826 1040.7418932172586 2315.5298732177826 1040.7418932172586 2315.226414931606 1039.251082382534 2315.226414931606 1039.251082382534 2314.196612260452 1038.4712106818502 2314.196612260452 1038.4712106818502 2313.014434273406 1038.2680987502263 2313.014434273406 1038.2680987502263 2313.6495526124436 1038.980787955568 2313.6495526124436 1038.980787955568 2314.652098799382 1039.384856838632 2314.652098799382 1039.384856838632 2314.934679619885 1040.5937144365616 2314.934679619885 1040.5937144365616 2314.863945293924 1042.2991393955836 2314.863945293924 1042.2991393955836 2314.3010274501344 1043.943669006878 2314.3010274501344 1043.943669006878 2313.703273908547 1045.118032730797 2313.703273908547 1045.118032730797 2312.521932133158 1046.3315733197087 2312.521932133158 1046.3315733197087 2311.0912207036167 1046.8053116737642 2311.0912207036167 1046.8053116737642 2309.931573975563 1046.9768426176029 2309.931573975563 1046.9768426176029 2308.5839226438097 1047.2546547788388 2308.5839226438097 1047.2546547788388 2307.8443125571407 1046.4528813700283 2307.8443125571407 1046.4528813700283 2307.8627281923486 1045.3180703035823 2307.8627281923486 1045.3180703035823 2308.6463597192255 1045.361140571735 2308.6463597192255 1045.361140571735 2309.242377005108 1045.5108245569088 2309.242377005108 1045.5108245569088 2310.3175076187067 1045.534131197579 2310.3175076187067 1045.534131197579 2310.8936133490165 1045.4013330167702 2310.8936133490165 1045.4013330167702 2311.2687053707264 1045.187358265659 2311.2687053707264 1045.187358265659 2311.740832005855 1044.966825574954 2311.740832005855 1044.966825574954 2312.011940044239 1044.6652209576619 2312.011940044239 1044.6652209576619 2312.30321407002 1044.6456573445328 2312.30321407002 1044.6456573445328 2312.795428862383 1044.7069980335684 2312.795428862383 1044.7069980335684 2312.815736454964 1044.9890642800306 2312.815736454964 1044.9890642800306 2312.9896124455818 1044.6938988664037 2312.9896124455818 1044.6938988664037 2312.684809470587 1044.5254983555387 2312.684809470587 1044.5254983555387 2312.179156431829 1044.276091160168 2312.179156431829 1044.276091160168 2311.7004967758526 1044.4026780495662 2311.7004967758526 1044.4026780495662 2311.228485475709 1044.623199869416 2311.228485475709 1044.623199869416 2310.555501475463 1044.7625331613635 2310.555501475463 1044.7625331613635 2309.8691451435475 1044.7136272929263 2309.8691451435475 1044.7136272929263 2308.8849169173823 1044.589704462263 2308.8849169173823 1044.589704462263 2308.192078370585 1044.446309531637 2308.192078370585 1044.446309531637 2307.971638610293 1044.0829043757706 2307.971638610293 1044.0829043757706 2308.378066651443 1042.9226930110444 2308.378066651443 1042.9226930110444 2309.575469100072 1043.3160566178751 2309.575469100072 1043.3160566178751 2310.64287118271 1043.2451955707986 2310.64287118271 1043.2451955707986 2311.3220938419317 1043.1998662440506 2311.3220938419317 1043.1998662440506 2311.877371461877 1042.7847852093814 2311.877371461877 1042.7847852093814 2312.245199215518 1042.4766588710097 2312.245199215518 1042.4766588710097 2312.8068932614606 1042.1553962367946 2312.8068932614606 1042.1553962367946 2313.395559323557 1042.2100682162445 2313.395559323557 1042.2100682162445 2313.429483715722 1042.6801443476402 2313.429483715722 1042.6801443476402 2313.7204915003995 1042.6604174905585 2313.7204915003995 1042.6604174905585 2313.783488400911 1042.1837637373465 2313.783488400911 1042.1837637373465 2312.204792952775 1041.9125510323076 2312.204792952775 1041.9125510323076 2310.7568189912554 1042.1039911387936 2310.7568189912554 1042.1039911387936 2310.368877894632 1042.1298282383405 2310.368877894632 1042.1298282383405 2309.883939676419 1042.1620403908078 2309.883939676419 1042.1620403908078 2308.673924821474 1041.5807798562928 2308.673924821474 1041.5807798562928 2308.517749325114 1040.7409297059096 2308.517749325114 1040.7409297059096 2308.7690239105855 1040.157625671608 2308.7690239105855 1040.157625671608 2310.22920978183 1040.1553776479927 2310.22920978183 1040.1553776479927 2311.716221289654 1040.5283466763283 2311.716221289654 1040.5283466763283 2312.471311766296 1040.1941543978664 2312.471311766296 1040.1941543978664 2312.82514952052 1039.6979281099602 2312.82514952052 1039.6979281099602 2311.171478640313 1039.7146587533073 2311.171478640313 1039.7146587533073 2310.673739725469 1039.5589876119525 2310.673739725469 1039.5589876119525 2309.6519922526168 1038.8712673115174 2309.6519922526168 1038.8712673115174 2309.5353036234733 1038.5956270915156 2309.5353036234733 1038.5956270915156 2309.379014178117 1037.7558581354247 2309.379014178117 1037.7558581354247 2309.2030557754088 1036.6340211518527 2309.2030557754088 1036.6340211518527 2308.937129835781 1035.612593155217 2308.937129835781 1035.612593155217 2308.5747536614335 1034.59751960205 2308.5747536614335 1034.59751960205 2306.0092436158543 1034.0099608936569 2306.0092436158543 1034.0099608936569 2306.2668711996957 1033.5209497192336 2306.2668711996957 1033.5209497192336 2306.6981744326336 1032.7372108343448 2306.6981744326336 1032.7372108343448 2307.8443812332243 1032.4731725163301 2307.8443812332243 1032.4731725163301 2308.487761082493 1031.958479580328 2308.487761082493 1031.958479580328 2309.6004254949735 1031.2235066130395 2309.6004254949735 1031.2235066130395 2309.6244265413607 1030.1828240782288 2309.6244265413607 1030.1828240782288 2310.176966269677 1029.7681255406992 2310.176966269677 1029.7681255406992 2311.128471157765 1029.5154523283068 2311.128471157765 1029.5154523283068 2311.7272929260926 1029.7585578958021 2311.7272929260926 1029.7585578958021 2312.1399467038186 1030.1085840301712 2312.1399467038186 1030.1085840301712 2312.1600100980218 1030.3906368663029 2312.1600100980218 1030.3906368663029 2312.083565278081 1030.6792079316797 2312.083565278081 1030.6792079316797 2311.903897087118 1030.880271152061 2311.903897087118 1030.880271152061 2311.4146200809028 1030.8187606960967 2311.4146200809028 1030.8187606960967 2311.2016175841 1030.54967914073 2311.2016175841 1030.54967914073 2310.905442858814 1030.4750935052389 2310.905442858814 1030.4750935052389 2310.815572335856 1030.5755848108709 2310.815572335856 1030.5755848108709 2310.8354890906735 1030.8576460001211 2310.8354890906735 1030.8576460001211 2311.1450113415244 1031.1202776637967 2311.1450113415244 1031.1202776637967 2311.551142820165 1031.3763745562508 2311.551142820165 1031.3763745562508 2311.943991170945 1031.4443720725608 2311.943991170945 1031.4443720725608 2312.3234648448024 1031.324277053958 2312.3234648448024 1031.324277053958 2312.5996610875304 1031.1166491486836 2312.5996610875304 1031.1166491486836 2312.8623773591444 1030.7209605166822 2312.8623773591444 1030.7209605166822 2312.822088440904 1030.1568678204133 2312.822088440904 1030.1568678204133 2312.575476822821 1029.417815750632 2312.575476822821 1029.417815750632 2311.667285156347 1028.912373668887 2311.667285156347 1028.912373668887 2310.9788738699767 1028.7697501911325 2310.9788738699767 1028.7697501911325 2310.2073237646623 1028.821434993477 2310.2073237646623 1028.821434993477 2309.6352298503693 1028.9540689740682 2309.6352298503693 1028.9540689740682 2309.0060091277437 1029.6571365971377 2309.0060091277437 1029.6571365971377 2308.755908607079 1030.2404804170078 2308.755908607079 1030.2404804170078 2308.7690272965847 1030.4285333105222 2308.7690272965847 1030.4285333105222 2308.2799216214403 1030.366409044085 2308.2799216214403 1030.366409044085 2308.2472219813058 1029.8962685688489 2308.2472219813058 1029.8962685688489 2308.221070644854 1029.5201529090568 2308.221070644854 1029.5201529090568 2307.9889442874214 1028.9687011083165 2307.9889442874214 1028.9687011083165 2307.281228363986 1028.5429642726203 2307.281228363986 1028.5429642726203 2306.50966781779 1028.5935073297933 2306.50966781779 1028.5935073297933 2306.432623473696 1028.8819150152608 2306.432623473696 1028.8819150152608 2306.927883349631 1029.0384362241043 2306.927883349631 1029.0384362241043 2307.6226509567205 1029.276206357993 2307.6226509567205 1029.276206357993 2307.314789697501 1030.4299337428379 2307.314789697501 1030.4299337428379 2306.6650841812084 1030.85030500661 2306.6650841812084 1030.85030500661 2306.0923261194557 1030.9821226407482 2306.0923261194557 1030.9821226407482 2305.3199748779907 1031.0322960165595 2305.3199748779907 1031.0322960165595 2304.264318493287 1031.194931672718 2304.264318493287 1031.194931672718 2303.407996395772 1031.4388020851638 2303.407996395772 1031.4388020851638 2300.454391588051 1030.7761934935065 2300.454391588051 1030.7761934935065 2296.668300081 1027.8868334004349 2296.668300081 1027.8868334004349 2291.6617015865677 1025.3537231323453 2291.6617015865677 1025.3537231323453 2285.4164124012846 1026.1895080060901 2285.4164124012846 1026.1895080060901 2280.4330601987044 1032.136930801936 2280.4330601987044 1032.136930801936 2279.4801617990574 1036.676338895435 2279.4801617990574 1036.676338895435 2277.6817155257304 1043.6221418379025 2277.6817155257304 1043.6221418379025 2267.5280097642453 1055.2424462432627 2267.5280097642453 1055.2424462432627 2250.8980719531023 1057.4177499905904 2250.8980719531023 1057.4177499905904 2241.43315126745 1054.9658389761607 2241.43315126745 1054.9658389761607 2234.876349072415 1037.7451344549181 2234.876349072415 1037.7451344549181 2236.5003328412477 1029.426324208512 2236.5003328412477 1029.426324208512 2239.5660018127146 1015.8538286839078 2239.5660018127146 1015.8538286839078 2245.4277892626055 1001.6769774051467 2245.4277892626055 1001.6769774051467 2249.410138745016 999.3813908980121 2249.410138745016 999.3813908980121 2254.6950669409234 999.1501424526274 2254.6950669409234 999.1501424526274 2258.813351482351 999.6718006999115 2258.813351482351 999.6718006999115 2263.188449125071 1004.9053506815235 2263.188449125071 1004.9053506815235 2267.9947509730027 1013.4165591507185 2267.9947509730027 1013.4165591507185 2268.697040057711 1017.3985968598997 2268.697040057711 1017.3985968598997 2268.8649838962483 1020.4615014476244 2268.8649838962483 1020.4615014476244 2267.9634904273316 1021.6877701331481 2267.9634904273316 1021.6877701331481 2268.0054415730383 1021.6891112486476 2268.0054415730383 1021.6891112486476" id="i am a detail" style="fill:#f435ef" /><polygon points="2303.902308628468 802.6496517741266 2296.9646816881873 794.8257935128154 2296.9646816881873 794.8257935128154 2287.350310341286 789.961834352585 2287.350310341286 789.961834352585 2278.903755034953 789.6493795165136 2278.903755034953 789.6493795165136 2271.400460129876 789.2690313040678 2271.400460129876 789.2690313040678 2256.803516198597 794.9773361116061 2256.803516198597 794.9773361116061 2248.483320099576 810.3909026750043 2248.483320099576 810.3909026750043 2245.2820740695724 818.0052942902342 2245.2820740695724 818.0052942902342 2242.595817976657 832.9230207359087 2242.595817976657 832.9230207359087 2242.5585866418296 845.7708782194927 2242.5585866418296 845.7708782194927 2241.616849653414 871.4597018495909 2241.616849653414 871.4597018495909 2239.870540722957 885.2887135856872 2239.870540722957 885.2887135856872 2230.0992964090888 901.527925445045 2230.0992964090888 901.527925445045 2222.83422813955 902.0634998137966 2222.83422813955 902.0634998137966 2218.2273027982956 901.4903756295768 2218.2273027982956 901.4903756295768 2214.394623504248 899.0344823088349 2214.394623504248 899.0344823088349 2213.151749515283 894.5617886963448 2213.151749515283 894.5617886963448 2213.255525656347 883.5978791610701 2213.255525656347 883.5978791610701 2213.1213919416773 881.781288266627 2213.1213919416773 881.781288266627 2215.9681811820337 879.392824747496 2215.9681811820337 879.392824747496 2219.274400139814 880.0791000861934 2219.274400139814 880.0791000861934 2220.0532269871733 881.184250049376 2220.0532269871733 881.184250049376 2220.121177607082 882.1092554144893 2220.121177607082 882.1092554144893 2219.9578742061135 883.0512711301633 2219.9578742061135 883.0512711301633 2218.8526053815513 883.8302354498526 2218.8526053815513 883.8302354498526 2218.390112813424 883.8643450452058 2218.390112813424 883.8643450452058 2218.124836461353 883.4189438688015 2218.124836461353 883.4189438688015 2217.8595512256225 882.9735334602725 2217.8595512256225 882.9735334602725 2217.8084980390518 882.2798148096017 2217.8084980390518 882.2798148096017 2217.0976890134552 882.0997410891671 2217.0976890134552 882.0997410891671 2216.985629840853 883.7354514139791 2216.985629840853 883.7354514139791 2218.243951414608 885.0374980101035 2218.243951414608 885.0374980101035 2218.4921985550673 885.2516567115475 2218.4921985550673 885.2516567115475 2219.4001226006026 884.9522290610184 2219.4001226006026 884.9522290610184 2220.539330718465 884.6357470288041 2220.539330718465 884.6357470288041 2220.7535878475433 884.3874749805685 2220.7535878475433 884.3874749805685 2220.658292808028 886.2542168255778 2220.658292808028 886.2542168255778 2220.478064649765 886.9648660306365 2220.478064649765 886.9648660306365 2220.0496362010085 887.461356790784 2220.0496362010085 887.461356790784 2219.1588166436704 887.9919423207448 2219.1588166436704 887.9919423207448 2218.9446287731953 888.2401806942728 2218.9446287731953 888.2401806942728 2217.7034894447393 887.1694925156248 2217.7034894447393 887.1694925156248 2216.299213121987 887.0406193474367 2216.299213121987 887.0406193474367 2215.870887565674 887.5371140221725 2215.870887565674 887.5371140221725 2215.6908209593958 888.2477330354374 2215.6908209593958 888.2477330354374 2215.758998817924 889.1724617401552 2215.758998817924 889.1724617401552 2216.04131420633 889.8489384595073 2216.04131420633 889.8489384595073 2216.7519024436274 890.0289548381813 2216.7519024436274 890.0289548381813 2217.2313039495675 890.2260235049146 2217.2313039495675 890.2260235049146 2218.7985315867213 889.4131395713282 2218.7985315867213 889.4131395713282 2220.5970902626495 888.5831931200488 2220.5970902626495 888.5831931200488 2220.4679444307712 889.9873134040041 2220.4679444307712 889.9873134040041 2219.380065647909 890.9972446997028 2219.380065647909 890.9972446997028 2218.47236566626 891.2966122473031 2218.47236566626 891.2966122473031 2217.966221794462 893.8905177897088 2217.966221794462 893.8905177897088 2218.2655358771026 894.7980780993948 2218.2655358771026 894.7980780993948 2220.234089265232 896.2797326257257 2220.234089265232 896.2797326257257 2223.273366697341 896.5204182146576 2223.273366697341 896.5204182146576 2225.1058176971355 896.1529089256253 2225.1058176971355 896.1529089256253 2226.503089899719 893.0286170147192 2226.503089899719 893.0286170147192 2226.1869031991278 891.8898596408736 2226.1869031991278 891.8898596408736 2225.1940663095534 891.0333802778699 2225.1940663095534 891.0333802778699 2224.184251382209 889.9457125399998 2224.184251382209 889.9457125399998 2223.2423963434876 889.782728022899 2223.2423963434876 889.782728022899 2222.531765916892 889.6026968341409 2222.531765916892 889.6026968341409 2221.821140706943 889.4226661994635 2221.821140706943 889.4226661994635 2221.7701429252043 888.7291266303096 2221.7701429252043 888.7291266303096 2221.9673663386843 888.2497089691911 2221.9673663386843 888.2497089691911 2223.6198955529567 888.5927359810237 2223.6198955529567 888.5927359810237 2225.734940727729 888.9016737152423 2225.734940727729 888.9016737152423 2226.761722882368 890.220550672322 2226.761722882368 890.220550672322 2227.3090765650404 891.3423069795094 2227.3090765650404 891.3423069795094 2228.019769647854 891.5223400722921 2228.019769647854 891.5223400722921 2228.7135044861893 891.4712091087625 2228.7135044861893 891.4712091087625 2229.5876284468377 890.7095333827308 2229.5876284468377 890.7095333827308 2229.7341270765532 889.5366234329175 2229.7341270765532 889.5366234329175 2229.4350747847247 888.6289465285561 2229.4350747847247 888.6289465285561 2228.6904224742075 887.9865231725335 2228.6904224742075 887.9865231725335 2227.979660704362 887.8064705060181 2227.979660704362 887.8064705060181 2227.037647756925 887.6434645954228 2227.037647756925 887.6434645954228 2225.8983234278644 887.9598879185598 2225.8983234278644 887.9598879185598 2223.55197278405 887.6679883672455 2223.55197278405 887.6679883672455 2222.5930823747417 887.273801227625 2222.5930823747417 887.273801227625 2222.9197419247316 885.3900857015014 2222.9197419247316 885.3900857015014 2223.9912413073685 884.1487481141376 2223.9912413073685 884.1487481141376 2225.4297384083366 884.7401070680082 2225.4297384083366 884.7401070680082 2226.225220150037 886.0762242352235 2226.225220150037 886.0762242352235 2227.861102136014 886.1880962256648 2227.861102136014 886.1880962256648 2228.786263927498 886.1199101613688 2228.786263927498 886.1199101613688 2229.18121028414 885.1609833965075 2229.18121028414 885.1609833965075 2229.3280180335655 883.9878415541494 2229.3280180335655 883.9878415541494 2228.780892595347 882.8657820908835 2228.780892595347 882.8657820908835 2227.804881540303 882.2402564582628 2227.804881540303 882.2402564582628 2225.988153579704 882.8391404352255 2225.988153579704 882.8391404352255 2225.5763371936832 883.5669415362328 2225.5763371936832 883.5669415362328 2224.386008992564 883.1897329614152 2224.386008992564 883.1897329614152 2224.284371363448 881.8022843582605 2224.284371363448 881.8022843582605 2225.288686718743 879.6356474375806 2225.288686718743 879.6356474375806 2227.404641224274 879.944720079664 2227.404641224274 879.944720079664 2228.5108812105923 879.1656218262345 2228.5108812105923 879.1656218262345 2227.4504298074216 877.3834593280255 2227.4504298074216 877.3834593280255 2226.541726806985 877.6829878416877 2226.541726806985 877.6829878416877 2226.129619603726 878.4109988126653 2226.129619603726 878.4109988126653 2225.2041570179395 878.4792189188339 2225.2041570179395 878.4792189188339 2223.731425552283 877.4250489288431 2223.731425552283 877.4250489288431 2222.9357756145755 876.0883051081954 2222.9357756145755 876.0883051081954 2222.388363249602 874.96572752263 2222.388363249602 874.96572752263 2220.932199033604 874.1426770959002 2220.932199033604 874.1426770959002 2220.7796579654073 872.0602393726482 2220.7796579654073 872.0602393726482 2222.382890397165 871.7093730612578 2222.382890397165 871.7093730612578 2222.778199757573 870.7495709028287 2222.778199757573 870.7495709028287 2222.230682917116 869.6265152226277 2222.230682917116 869.6265152226277 2219.616402572128 868.8884588080384 2219.616402572128 868.8884588080384 2218.0979000181674 870.3966524285884 2218.0979000181674 870.3966524285884 2218.1488919957865 871.090932861211 2218.1488919957865 871.090932861211 2218.4143273024843 871.5366949451953 2218.4143273024843 871.5366949451953 2219.159594809135 872.1797063874958 2219.159594809135 872.1797063874958 2219.49287695239 873.5509572152097 2219.49287695239 873.5509572152097 2217.8560548064806 873.4390426778606 2217.8560548064806 873.4390426778606 2216.630948172984 872.5988465802199 2216.630948172984 872.5988465802199 2214.9598924679394 872.0241428105614 2214.9598924679394 872.0241428105614 2213.1085433520084 872.1607091682542 2213.1085433520084 872.1607091682542 2208.317593683617 873.4447702681921 2208.317593683617 873.4447702681921 2206.072487903323 874.5409597505945 2206.072487903323 874.5409597505945 2203.2714914609264 877.5388636838854 2203.2714914609264 877.5388636838854 2200.5079027119546 887.275884096756 2200.5079027119546 887.275884096756 2202.212601441773 894.587966863807 2202.212601441773 894.587966863807 2208.202467332704 906.4635821682521 2208.202467332704 906.4635821682521 2224.4351664626943 912.2394571443367 2224.4351664626943 912.2394571443367 2237.456124595358 912.2097669976966 2237.456124595358 912.2097669976966 2240.4469501956746 911.7570508935264 2240.4469501956746 911.7570508935264 2247.5016853236557 909.6106054943157 2247.5016853236557 909.6106054943157 2253.565053259199 906.6078841085587 2253.565053259199 906.6078841085587 2261.9545328951044 885.8403520617616 2261.9545328951044 885.8403520617616 2265.3879256132636 877.104988016374 2265.3879256132636 877.104988016374 2263.8943390479462 873.173405645673 2263.8943390479462 873.173405645673 2288.2023235869947 871.8000623683218 2288.2023235869947 871.8000623683218 2287.7498145040686 877.086001173992 2287.7498145040686 877.086001173992 2288.747314695083 885.4960435208543 2288.747314695083 885.4960435208543 2295.1598755869136 900.7791900209438 2295.1598755869136 900.7791900209438 2307.521992565216 907.555289799466 2307.521992565216 907.555289799466 2321.0428099461255 907.384719442984 2321.0428099461255 907.384719442984 2334.5098973121076 900.3561375791809 2334.5098973121076 900.3561375791809 2338.8479935099945 891.9682504486842 2338.8479935099945 891.9682504486842 2338.4688758159573 880.6883848042309 2338.4688758159573 880.6883848042309 2334.6292898582183 878.9443084397493 2334.6292898582183 878.9443084397493 2334.382265979473 881.3852820894539 2334.382265979473 881.3852820894539 2331.3935847922417 891.6956189771963 2331.3935847922417 891.6956189771963 2322.995057879765 895.1270858171087 2322.995057879765 895.1270858171087 2305.5706533929174 886.695599473493 2305.5706533929174 886.695599473493 2303.1604969218124 875.5607448385626 2303.1604969218124 875.5607448385626 2302.80868409778 870.3333315163429 2302.80868409778 870.3333315163429 2301.725697180902 832.751813418671 2301.725697180902 832.751813418671 2301.889503839454 812.8030047028084 2301.889503839454 812.8030047028084 2300.69743678982 805.5424870386091 2300.69743678982 805.5424870386091 2301.030194378255 803.8837740110696 2301.030194378255 803.8837740110696 2303.587100958893 805.3330032567625 2303.587100958893 805.3330032567625 2306.9901501002983 807.1287652166452 2306.9901501002983 807.1287652166452 2309.9224088254587 807.7332126341169 2309.9224088254587 807.7332126341169 2312.7992935547463 807.1170467999716 2312.7992935547463 807.1170467999716 2316.886665788983 805.5970097428449 2316.886665788983 805.5970097428449 2317.6258818239326 803.5011034543071 2317.6258818239326 803.5011034543071 2317.5722974542814 802.2788644389866 2317.5722974542814 802.2788644389866 2316.2910845343085 801.5536195225488 2316.2910845343085 801.5536195225488 2314.2523965332084 802.5183513446478 2314.2523965332084 802.5183513446478 2313.9110913360555 804.1777124973963 2313.9110913360555 804.1777124973963 2311.858183911902 804.7345457411213 2311.858183911902 804.7345457411213 2307.7005840105076 804.6265807607856 2307.7005840105076 804.6265807607856 2307.287011672798 804.656507315111 2307.287011672798 804.656507315111 2298.4134724776645 801.2113259562676 2298.4134724776645 801.2113259562676 2295.172899176077 802.6736136890747 2295.172899176077 802.6736136890747 2285.662935731786 810.3107901963056 2285.662935731786 810.3107901963056 2287.094330597906 813.8783454460029 2287.094330597906 813.8783454460029 2288.8019342363 814.9771906986011 2288.8019342363 814.9771906986011 2287.724902718609 858.4911987417709 2287.724902718609 858.4911987417709 2264.300359669633 861.4175122166589 2264.300359669633 861.4175122166589 2265.645293580946 857.272397708168 2265.645293580946 857.272397708168 2267.317394937758 819.8061654342798 2267.317394937758 819.8061654342798 2269.9058954490242 808.194528349524 2269.9058954490242 808.194528349524 2277.9851977744856 805.5608574325596 2277.9851977744856 805.5608574325596 2279.216213907149 805.4709944709351 2279.216213907149 805.4709944709351 2281.7461992189865 806.5124372169554 2281.7461992189865 806.5124372169554 2284.7532402876814 808.7440531386912 2284.7532402876814 808.7440531386912 2297.507943155546 799.6404266321933 2297.507943155546 799.6404266321933 2303.4110073836036 801.666946717704 2303.4110073836036 801.666946717704 2303.902308628468 802.6496517741266 2303.902308628468 802.6496517741266" id="i am a detail" style="fill:#f435ef" /><polygon points="2338.3121361048197 938.1745419905279 2336.3026381929462 947.8014675472167 2336.3026381929462 947.8014675472167 2335.1996846492166 951.2646437676433 2335.1996846492166 951.2646437676433 2330.4372096744223 955.6689580860746 2330.4372096744223 955.6689580860746 2326.8736091282053 957.9524258976285 2326.8736091282053 957.9524258976285 2321.886815368285 959.3184680520999 2321.886815368285 959.3184680520999 2319.886695448984 959.7956732580305 2319.886695448984 959.7956732580305 2315.4778361339895 959.7615321640856 2315.4778361339895 959.7615321640856 2312.4182321943167 959.6312943551234 2312.4182321943167 959.6312943551234 2312.6034655735457 962.3196893627226 2312.6034655735457 962.3196893627226 2315.6879324057577 962.7857106135258 2315.6879324057577 962.7857106135258 2320.1701773747686 963.8273583960499 2320.1701773747686 963.8273583960499 2327.981900561263 963.9512918702416 2327.981900561263 963.9512918702416 2331.3087157379796 963.0361238786274 2331.3087157379796 963.0361238786274 2334.9721363281624 962.0929489060361 2334.9721363281624 962.0929489060361 2338.14397153038 1048.637018907577 2338.14397153038 1048.637018907577 2336.408452958595 1053.1703955087287 2336.408452958595 1053.1703955087287 2330.832406072519 1057.9791821048032 2330.832406072519 1057.9791821048032 2327.4988221803383 1060.2496672143238 2327.4988221803383 1060.2496672143238 2322.0121773915203 1061.985504599977 2322.0121773915203 1061.985504599977 2319.9401278042633 1062.4654960304863 2319.9401278042633 1062.4654960304863 2316.889229141645 1064.0286216586403 2316.889229141645 1064.0286216586403 2317.0313343845437 1066.0578252596335 2317.0313343845437 1066.0578252596335 2368.6801962753507 1064.6363730223975 2368.6801962753507 1064.6363730223975 2365.906124129911 1061.456237102534 2365.906124129911 1061.456237102534 2361.5542988922557 1060.1012644156647 2361.5542988922557 1060.1012644156647 2353.6240348145284 1053.9241011044949 2353.6240348145284 1053.9241011044949 2352.6633505621967 1050.943749648578 2352.6633505621967 1050.943749648578 2349.3978085159106 986.3140944080997 2349.3978085159106 986.3140944080997 2348.539171490333 970.8596780753744 2348.539171490333 970.8596780753744 2348.4729854093935 961.0733290959378 2348.4729854093935 961.0733290959378 2368.2478394360915 958.4602097609717 2368.2478394360915 958.4602097609717 2380.0764320367434 957.8120545260153 2380.0764320367434 957.8120545260153 2391.248538665775 953.4904466533648 2391.248538665775 953.4904466533648 2390.921250529527 949.8015439216713 2390.921250529527 949.8015439216713 2390.6255673644746 946.4487499481442 2390.6255673644746 946.4487499481442 2387.724694650212 944.330295067433 2387.724694650212 944.330295067433 2383.9621855732044 943.9724981372922 2383.9621855732044 943.9724981372922 2385.8791329359747 946.5124449793923 2385.8791329359747 946.5124449793923 2374.863027056351 952.5036619270811 2374.863027056351 952.5036619270811 2362.0948555810623 953.9003943064033 2362.0948555810623 953.9003943064033 2348.9357928199847 954.6393780453792 2348.9357928199847 954.6393780453792 2346.1047184490194 940.6897223410667 2346.1047184490194 940.6897223410667 2345.5865334567893 934.3201972218538 2345.5865334567893 934.3201972218538 2342.7369543607733 932.52646345484 2342.7369543607733 932.52646345484 2339.070316918788 933.1597464365034 2339.070316918788 933.1597464365034 2338.1317806786883 938.2964739104152 2338.1317806786883 938.2964739104152 2338.3121361048197 938.1745419905279 2338.3121361048197 938.1745419905279" id="i am a detail" style="fill:#f435ef" /><polygon points="2401.93568864155 994.9960862109076 2387.9939427751124 988.3051654715102 2387.9939427751124 988.3051654715102 2374.1675738136305 987.6994170906665 2374.1675738136305 987.6994170906665 2359.8378338262846 997.6088857001683 2359.8378338262846 997.6088857001683 2356.8243262553806 1010.5635801698542 2356.8243262553806 1010.5635801698542 2356.9419342600686 1029.8762980523188 2356.9419342600686 1029.8762980523188 2357.9853026757964 1043.8729271053412 2357.9853026757964 1043.8729271053412 2368.030136492359 1056.3269465521091 2368.030136492359 1056.3269465521091 2375.041824775224 1058.4230671460457 2375.041824775224 1058.4230671460457 2382.9350383540273 1059.9934661906223 2382.9350383540273 1059.9934661906223 2392.9487146445517 1059.600596548569 2392.9487146445517 1059.600596548569 2402.745670370087 1052.1285322695392 2402.745670370087 1052.1285322695392 2404.0104828998783 1046.279301642832 2404.0104828998783 1046.279301642832 2405.9168627355593 1056.7094137906647 2405.9168627355593 1056.7094137906647 2411.971389782241 1057.9378298461534 2411.971389782241 1057.9378298461534 2421.882936305146 1056.589552441013 2421.882936305146 1056.589552441013 2416.5251726036686 1044.271774172921 2416.5251726036686 1044.271774172921 2413.819671548317 993.4806661527874 2413.819671548317 993.4806661527874 2417.0192780328707 989.669297069849 2417.0192780328707 989.669297069849 2406.4714278169913 991.0761035969364 2406.4714278169913 991.0761035969364 2403.9030271599468 997.0167782374726 2403.9030271599468 997.0167782374726 2404.8553067165944 1036.06537438447 2404.8553067165944 1036.06537438447 2400.6123801758645 1048.7833803410215 2400.6123801758645 1048.7833803410215 2392.1810840591625 1056.1304140010252 2392.1810840591625 1056.1304140010252 2379.809792577536 1055.3899435361109 2379.809792577536 1055.3899435361109 2375.8290964604344 1051.2985722571975 2375.8290964604344 1051.2985722571975 2373.771593849843 1031.6459720542052 2373.771593849843 1031.6459720542052 2374.0648793949435 1007.8980569765121 2374.0648793949435 1007.8980569765121 2377.5870692245003 996.6376253864662 2377.5870692245003 996.6376253864662 2381.3072960409336 993.2578473482274 2381.3072960409336 993.2578473482274 2385.6871148716705 992.4520044979815 2385.6871148716705 992.4520044979815 2389.7376880716824 992.9859594443566 2389.7376880716824 992.9859594443566 2394.7891115446314 994.745906904587 2394.7891115446314 994.745906904587 2399.9644683901874 997.8058272005628 2399.9644683901874 997.8058272005628 2401.93568864155 994.9960862109076 2401.93568864155 994.9960862109076" id="i am a detail" style="fill:#f435ef" /><polygon points="2427.3080793024815 973.0275341643519 2418.3039838255713 979.3201813918837 2418.3039838255713 979.3201813918837 2411.0097019806435 982.0347207061315 2411.0097019806435 982.0347207061315 2416.7729037495606 984.897598980649 2416.7729037495606 984.897598980649 2423.6499118966726 984.9290628059474 2423.6499118966726 984.9290628059474 2431.1166722911817 1057.7503668483268 2431.1166722911817 1057.7503668483268 2423.215007645137 1063.2855834005009 2423.215007645137 1063.2855834005009 2448.0200986889813 1062.9531981606967 2448.0200986889813 1062.9531981606967 2441.696683157334 1057.4123320304993 2441.696683157334 1057.4123320304993 2437.1582198019833 975.4630418516092 2437.1582198019833 975.4630418516092 2426.6284440297536 973.0930255668637 2426.6284440297536 973.0930255668637 2427.3080793024815 973.0275341643519 2427.3080793024815 973.0275341643519" id="i am a detail" style="fill:#f435ef" /><polygon points="2425.3878243875015 954.720590779321 2425.313785894861 954.5863885327377 2425.313785894861 954.5863885327377 2425.119458175842 954.2341170667107 2425.119458175842 954.2341170667107 2425.4552712737604 953.9086083241331 2425.4552712737604 953.9086083241331 2425.8923729605417 953.8661107617672 2425.8923729605417 953.8661107617672 2426.2566181777474 953.8306703165098 2426.2566181777474 953.8306703165098 2426.7879452175375 953.998598478975 2426.7879452175375 953.998598478975 2427.246448537249 954.1735799909409 2427.246448537249 954.1735799909409 2427.9378232941754 954.4722449143687 2427.9378232941754 954.4722449143687 2428.7678207853933 954.6840558369139 2428.7678207853933 954.6840558369139 2429.1320930242227 954.6484306745649 2429.1320930242227 954.6484306745649 2429.562048880532 954.5331255885595 2429.562048880532 954.5331255885595 2429.7734369417667 954.4391988618662 2429.7734369417667 954.4391988618662 2429.824783630315 954.2144913530456 2429.824783630315 954.2144913530456 2429.9334766885468 954.5699727389319 2429.9334766885468 954.5699727389319 2429.8749620771246 954.7221569204861 2429.8749620771246 954.7221569204861 2429.6635656307285 954.816087136228 2429.6635656307285 954.816087136228 2429.4521625951584 954.9100093604756 2429.4521625951584 954.9100093604756 2429.306448626265 954.9242704400752 2429.306448626265 954.9242704400752 2429.393632475657 955.0621880051743 2429.393632475657 955.0621880051743 2429.6122079308498 955.0407916417237 2429.6122079308498 955.0407916417237 2429.8379507992104 955.0919100347102 2429.8379507992104 955.0919100347102 2430.2679252744792 954.9765518790941 2430.2679252744792 954.9765518790941 2430.3264323285744 954.8243640591062 2430.3264323285744 954.8243640591062 2430.3992870884617 954.8172208512545 2430.3992870884617 954.8172208512545 2430.4936716768516 955.0276441526246 2430.4936716768516 955.0276441526246 2430.4423435308418 955.252355705434 2430.4423435308418 955.252355705434 2430.238111327337 955.4188290741804 2430.238111327337 955.4188290741804 2429.8009351486508 955.4616615422813 2429.8009351486508 955.4616615422813 2429.603844847237 955.7006345496015 2429.603844847237 955.7006345496015 2429.6910471823962 955.8385465591431 2429.6910471823962 955.8385465591431 2430.0553849776948 955.8028623655434 2430.0553849776948 955.8028623655434 2430.2011189335417 955.7885821195421 2430.2011189335417 955.7885821195421 2430.4854069772387 955.6874884346581 2430.4854069772387 955.6874884346581 2430.791230043521 955.8039451295355 2430.791230043521 955.8039451295355 2430.6013480720953 956.1154735630007 2430.6013480720953 956.1154735630007 2430.2369936354826 956.1511928136048 2430.2369936354826 956.1511928136048 2430.81173234312 956.7538701984868 2430.81173234312 956.7538701984868 2430.5273978945042 956.8549795816306 2430.5273978945042 956.8549795816306 2430.2215246747846 956.7385094139659 2430.2215246747846 956.7385094139659 2430.337468754986 957.1664972859458 2430.337468754986 957.1664972859458 2431.043727999425 957.609818669582 2431.043727999425 957.609818669582 2431.21826622788 957.8855942982987 2431.21826622788 957.8855942982987 2430.91950880452 957.8416824928827 2430.91950880452 957.8416824928827 2430.482153624587 957.8845670374255 2430.482153624587 957.8845670374255 2430.532426407919 958.3922150513781 2430.532426407919 958.3922150513781 2431.2829902534127 958.5382760977654 2431.2829902534127 958.5382760977654 2431.508887236932 958.5893270032884 2431.508887236932 958.5893270032884 2431.311762168046 958.8283566802785 2431.311762168046 958.8283566802785 2431.1875284588673 959.0602263537542 2431.1875284588673 959.0602263537542 2431.6609636275134 959.3798861762077 2431.6609636275134 959.3798861762077 2432.0327228827073 959.4165948073828 2432.0327228827073 959.4165948073828 2432.543101018004 959.366419776157 2432.543101018004 959.366419776157 2433.1487635684343 958.7942168627487 2433.1487635684343 958.7942168627487 2433.3826127534066 958.1853540385213 2433.3826127534066 958.1853540385213 2433.4273329613175 957.1557443444513 2433.4273329613175 957.1557443444513 2433.4280432277465 956.4233847549224 2433.4280432277465 956.4233847549224 2432.8618536993913 954.4287538883469 2432.8618536993913 954.4287538883469 2432.2367623493565 953.3186213677677 2432.2367623493565 953.3186213677677 2431.9103909231294 952.2522786381855 2431.9103909231294 952.2522786381855 2431.881634974565 951.9621838172295 2431.881634974565 951.9621838172295 2431.845694706388 951.5995627670195 2431.845694706388 951.5995627670195 2432.480318151302 950.5850709500356 2432.480318151302 950.5850709500356 2433.630755219943 950.3251666584063 2433.630755219943 950.3251666584063 2434.213157528839 950.2676498787241 2434.213157528839 950.2676498787241 2435.043427209026 949.7461232368653 2435.043427209026 949.7461232368653 2435.1017804754674 949.593871338023 2435.1017804754674 949.593871338023 2435.276827003994 949.1371082661758 2435.276827003994 949.1371082661758 2435.5824263285517 949.253319741252 2435.5824263285517 949.253319741252 2435.676893085278 949.4636787373877 2435.676893085278 949.4636787373877 2435.713027883908 949.8262934403733 2435.713027883908 949.8262934403733 2435.545224673269 950.3555835946246 2435.545224673269 950.3555835946246 2435.3484962329953 950.5947763837152 2435.3484962329953 950.5947763837152 2435.8942793336287 950.9069017904018 2435.8942793336287 950.9069017904018 2436.2583152723964 950.8708156377179 2436.2583152723964 950.8708156377179 2437.051944830215 950.7188243191443 2437.051944830215 950.7188243191443 2438.0929930787856 950.8350686492142 2438.0929930787856 950.8350686492142 2439.155820691341 951.9010783932113 2439.155820691341 951.9010783932113 2439.512604588626 952.5246689688272 2439.512604588626 952.5246689688272 2439.4761733758614 952.8944959174485 2439.4761733758614 952.8944959174485 2439.2722321776782 953.0613001348571 2439.2722321776782 953.0613001348571 2439.0391787686012 952.9380433111487 2439.0391787686012 952.9380433111487 2438.9590721412615 952.872784292407 2438.9590721412615 952.872784292407 2439.323188893631 953.5688892580508 2439.323188893631 953.5688892580508 2439.701983220415 954.4099860673405 2439.701983220415 954.4099860673405 2440.212157124952 955.8238574508616 2440.212157124952 955.8238574508616 2440.2486598391674 956.1864040503679 2440.2486598391674 956.1864040503679 2439.9936635964873 956.5780253661786 2439.9936635964873 956.5780253661786 2439.8479095738157 956.5925576497717 2439.8479095738157 956.5925576497717 2439.6146889485635 956.4693293286498 2439.6146889485635 956.4693293286498 2439.4324797731333 956.12130096907 2439.4324797731333 956.12130096907 2439.25029710983 955.7732659123078 2439.25029710983 955.7732659123078 2438.958867990505 955.0699218252992 2438.958867990505 955.0699218252992 2438.7621327450147 955.309214284655 2438.7621327450147 955.309214284655 2439.0462679923403 955.9400561931482 2439.0462679923403 955.9400561931482 2439.9209054695853 957.3176513634354 2439.9209054695853 957.3176513634354 2440.249166449914 958.3834805670308 2440.249166449914 958.3834805670308 2440.373249039152 958.8837696435351 2440.373249039152 958.8837696435351 2440.4025043943802 959.1738038049098 2440.4025043943802 959.1738038049098 2440.33690790725 959.2535842918029 2440.33690790725 959.2535842918029 2439.9723514139127 959.2899299198752 2439.9723514139127 959.2899299198752 2439.4910679943137 958.8984555996374 2439.4910679943137 958.8984555996374 2439.3962623168413 958.6881863733794 2439.3962623168413 958.6881863733794 2439.1483695486027 958.4199199034472 2439.1483695486027 958.4199199034472 2438.813029291262 958.0138740471824 2438.813029291262 958.0138740471824 2439.017158177539 958.5794508949596 2439.017158177539 958.5794508949596 2439.8193897480232 959.9643110686917 2439.8193897480232 959.9643110686917 2440.3303537673737 961.3781602368368 2440.3303537673737 961.3781602368368 2440.4328986330115 962.3932983935077 2440.4328986330115 962.3932983935077 2440.1630573550806 962.6399145017263 2440.1630573550806 962.6399145017263 2439.9441883872964 962.6617185569719 2439.9441883872964 962.6617185569719 2439.6377285706963 962.5457546156132 2439.6377285706963 962.5457546156132 2439.6233113124417 963.1331105790596 2439.6233113124417 963.1331105790596 2439.652588865627 963.4231590322867 2439.652588865627 963.4231590322867 2439.513973806666 963.5101955185858 2439.513973806666 963.5101955185858 2439.149134632077 963.5464895871269 2439.149134632077 963.5464895871269 2438.922920436288 963.4957414527314 2438.922920436288 963.4957414527314 2438.696819344213 964.1773744090971 2438.696819344213 964.1773744090971 2438.324632395115 964.1411014149747 2438.324632395115 964.1411014149747 2438.091104482198 964.0178048638444 2438.091104482198 964.0178048638444 2437.974350545573 964.3223501528017 2437.974350545573 964.3223501528017 2437.8429890994794 964.4818627579525 2437.8429890994794 964.4818627579525 2437.704324226833 964.5688565601679 2437.704324226833 964.5688565601679 2437.5583610729 964.5833306733728 2437.5583610729 964.5833306733728 2437.2518547677514 964.46723419677 2437.2518547677514 964.46723419677 2436.9526496575695 964.4236383131483 2436.9526496575695 964.4236383131483 2436.478384360573 964.1044044025721 2436.478384360573 964.1044044025721 2435.9021454017093 963.5022788707734 2435.9021454017093 963.5022788707734 2435.6981041210456 962.9365695875301 2435.6981041210456 962.9365695875301 2435.3119375104543 962.0226910416069 2435.3119375104543 962.0226910416069 2435.01335184202 961.2466256723621 2435.01335184202 961.2466256723621 2434.4521216180606 960.7894057195479 2434.4521216180606 960.7894057195479 2434.2773158619434 960.5137277882225 2434.2773158619434 960.5137277882225 2434.752083400118 959.3684106482193 2434.752083400118 959.3684106482193 2434.6874668479545 957.983411256334 2434.6874668479545 957.983411256334 2434.7614294103546 956.5114950207379 2434.7614294103546 956.5114950207379 2434.631280073054 955.2061977206528 2434.631280073054 955.2061977206528 2434.442820076795 954.0531136255274 2434.442820076795 954.0531136255274 2434.566833482906 953.8211657605341 2434.566833482906 953.8211657605341 2434.7781286518134 953.7270512634545 2434.7781286518134 953.7270512634545 2435.0255648817206 953.995517257275 2435.0255648817206 953.995517257275 2435.1423254844353 953.6910388291586 2435.1423254844353 953.6910388291586 2435.1350949591424 953.6185211334368 2435.1350949591424 953.6185211334368 2435.426447597184 953.5896946373186 2435.426447597184 953.5896946373186 2435.8123523123636 953.7711909254865 2435.8123523123636 953.7711909254865 2435.834070356116 953.9887407010191 2435.834070356116 953.9887407010191 2435.848550447197 954.1337734853564 2435.848550447197 954.1337734853564 2435.9725145089446 953.9017950698121 2435.9725145089446 953.9017950698121 2436.0163902711056 953.6045132709417 2436.0163902711056 953.6045132709417 2435.921832907444 953.3941783705118 2435.921832907444 953.3941783705118 2436.4972716230886 953.2639128134797 2436.4972716230886 953.2639128134797 2436.7302721303786 953.3872736989434 2436.7302721303786 953.3872736989434 2436.824858782825 953.5975951079445 2436.824858782825 953.5975951079445 2436.7592701438475 953.67733678166 2436.7592701438475 953.67733678166 2436.715429920954 953.97462403649 2436.715429920954 953.97462403649 2436.4530477804187 954.2935789333585 2436.4530477804187 954.2935789333585 2436.2489991802518 954.4602708145451 2436.2489991802518 954.4602708145451 2436.7371824531597 954.1921697511117 2436.7371824531597 954.1921697511117 2437.0723894978446 953.8659720654723 2437.0723894978446 953.8659720654723 2437.1817961758197 953.488935654997 2437.1817961758197 953.488935654997 2436.031303151675 953.0171615417713 2436.031303151675 953.0171615417713 2435.739976854902 953.0460194381062 2435.739976854902 953.0460194381062 2435.2373836222655 953.1690027760294 2435.2373836222655 953.1690027760294 2434.7347751296134 953.2919412268667 2434.7347751296134 953.2919412268667 2434.195409328384 953.7846223627178 2434.195409328384 953.7846223627178 2434.2453222972413 955.0246240384947 2434.2453222972413 955.0246240384947 2434.303114086898 955.6047630604077 2434.303114086898 955.6047630604077 2434.3525114521926 957.5771011825782 2434.3525114521926 957.5771011825782 2434.344126271992 958.9692990103442 2434.344126271992 958.9692990103442 2434.0006804386157 959.9551677165846 2434.0006804386157 959.9551677165846 2434.5829828403466 961.3623438368735 2434.5829828403466 961.3623438368735 2434.6766805456914 963.0374452764904 2434.6766805456914 963.0374452764904 2434.5297834620064 964.5166205986117 2434.5297834620064 964.5166205986117 2433.813303222413 966.1984138381603 2433.813303222413 966.1984138381603 2433.2799115017897 966.7635638057658 2433.2799115017897 966.7635638057658 2433.542400000906 967.17716814938 2433.542400000906 967.17716814938 2434.024013053072 967.5691957851074 2434.024013053072 967.5691957851074 2434.1845692702514 967.6998635238674 2434.1845692702514 967.6998635238674 2434.8418093470495 967.6350865507252 2434.8418093470495 967.6350865507252 2435.031824777986 967.323379337298 2435.031824777986 967.323379337298 2435.492071735994 966.7652668879673 2435.492071735994 966.7652668879673 2435.849859930205 966.6566838441407 2435.849859930205 966.6566838441407 2436.149184376049 966.7003400616217 2436.149184376049 966.7003400616217 2436.3973551559775 966.9687670291365 2436.3973551559775 966.9687670291365 2436.7185761004475 967.2299597463809 2436.7185761004475 967.2299597463809 2436.0468326019172 967.1499080089529 2436.0468326019172 967.1499080089529 2435.6817378137403 967.1859816883016 2435.6817378137403 967.1859816883016 2435.557517100635 967.4179752085504 2435.557517100635 967.4179752085504 2435.7326660679983 967.6936468564352 2435.7326660679983 967.6936468564352 2436.119646276687 967.8751406254071 2436.119646276687 967.8751406254071 2436.6015648584903 968.2669571563507 2436.6015648584903 968.2669571563507 2436.6526142538924 968.7746301185031 2436.6526142538924 968.7746301185031 2436.5138196858948 968.8616042392152 2436.5138196858948 968.8616042392152 2435.790889192378 968.2738440449533 2435.790889192378 968.2738440449533 2435.3599466254623 968.3896372230953 2435.3599466254623 968.3896372230953 2435.7248845520626 969.0860594874413 2435.7248845520626 969.0860594874413 2435.739446376419 969.2311141496748 2435.739446376419 969.2311141496748 2435.4399682975354 969.1874330799045 2435.4399682975354 969.1874330799045 2435.199001287192 968.9914743927313 2435.199001287192 968.9914743927313 2435.0896032969677 968.6360438213102 2435.0896032969677 968.6360438213102 2434.483489370526 968.4760715827849 2434.483489370526 968.4760715827849 2434.2643720769684 968.4976590518585 2434.2643720769684 968.4976590518585 2434.2566430768848 969.1576094844747 2434.2566430768848 969.1576094844747 2434.088777816284 968.9544089518539 2434.088777816284 968.9544089518539 2434.038000524668 968.4467101362493 2434.038000524668 968.4467101362493 2432.8996815356204 967.3868476417907 2432.8996815356204 967.3868476417907 2432.9575544541785 967.9670686917002 2432.9575544541785 967.9670686917002 2433.4826653583796 968.794328190251 2433.4826653583796 968.794328190251 2435.029760698635 971.7183637339376 2435.029760698635 971.7183637339376 2435.117111940072 972.5887994897006 2435.117111940072 972.5887994897006 2434.6344817821337 972.9293773007345 2434.6344817821337 972.9293773007345 2434.327506856935 972.8130922232169 2434.327506856935 972.8130922232169 2433.5741205912173 973.3999854478691 2433.5741205912173 973.3999854478691 2433.215785979473 973.508451000012 2433.215785979473 973.508451000012 2432.7480886799126 973.2613548894826 2432.7480886799126 973.2613548894826 2432.5728917260717 972.9855351350741 2432.5728917260717 972.9855351350741 2432.1133028425957 972.0783562528957 2432.1133028425957 972.0783562528957 2431.8498233929226 972.3971823375944 2431.8498233929226 972.3971823375944 2431.9807662980134 972.970352971708 2431.9807662980134 972.970352971708 2431.6296584527668 973.1512596049505 2431.6296584527668 973.1512596049505 2431.0375185106764 973.1359789660717 2431.0375185106764 973.1359789660717 2430.63691287736 972.0764376453377 2430.63691287736 972.0764376453377 2430.7480686456615 970.9668896562682 2430.7480686456615 970.9668896562682 2430.4546920523344 971.7280258621813 2430.4546920523344 971.7280258621813 2430.293024983282 972.3297969975388 2430.293024983282 972.3297969975388 2429.861599190732 972.4451895904821 2429.861599190732 972.4451895904821 2429.0143317563575 972.0883924900285 2429.0143317563575 972.0883924900285 2429.8003217284704 969.5947253532975 2429.8003217284704 969.5947253532975 2430.0278193646022 968.913356172368 2430.0278193646022 968.913356172368 2429.970287067635 968.3330889644767 2429.970287067635 968.3330889644767 2429.861301652878 967.977564979564 2429.861301652878 967.977564979564 2429.0422718097043 968.6434211714476 2429.0422718097043 968.6434211714476 2429.01228419 969.0857593477655 2429.01228419 969.0857593477655 2428.7057232810694 968.9691875802332 2428.7057232810694 968.9691875802332 2428.171447243011 969.5339021669959 2428.171447243011 969.5339021669959 2427.9952331908817 969.99047885717 2427.9952331908817 969.99047885717 2427.950811694114 970.2877512678904 2427.950811694114 970.2877512678904 2427.811823291054 970.3745168924746 2427.811823291054 970.3745168924746 2427.5123628177016 970.3304157334553 2427.5123628177016 970.3304157334553 2427.1684325399797 970.5835683215134 2427.1684325399797 970.5835683215134 2426.8975482909495 970.8296027776784 2426.8975482909495 970.8296027776784 2426.612349473563 970.9305392316244 2426.612349473563 970.9305392316244 2425.8672057152144 970.8563684181019 2425.8672057152144 970.8563684181019 2426.496419531326 970.5023770601827 2426.496419531326 970.5023770601827 2426.7673061488804 970.2563647346676 2426.7673061488804 970.2563647346676 2427.11123440831 970.0032394638198 2427.11123440831 970.0032394638198 2427.075491668745 969.6405397346621 2427.075491668745 969.6405397346621 2426.9150686531934 969.5096629938154 2426.9150686531934 969.5096629938154 2426.03115125844 969.5222551411507 2426.03115125844 969.5222551411507 2425.8190808201216 969.6160578209535 2425.8190808201216 969.6160578209535 2425.38779054682 969.7310983626243 2425.38779054682 969.7310983626243 2425.3450604501118 969.2958502768801 2425.3450604501118 969.2958502768801 2425.922433339804 969.166642215156 2425.922433339804 969.166642215156 2426.2877331736 969.1311946310321 2426.2877331736 969.1311946310321 2426.952401695975 969.1398681862148 2426.952401695975 969.1398681862148 2427.5440125482696 969.1555724007685 2427.5440125482696 969.1555724007685 2427.654343833112 968.7786688482845 2427.654343833112 968.7786688482845 2427.085799714622 968.2481166636355 2427.085799714622 968.2481166636355 2426.560207289378 968.1527335636564 2426.560207289378 968.1527335636564 2426.1735866028525 967.9705865606131 2426.1735866028525 967.9705865606131 2426.74362881882 967.768763804674 2426.74362881882 967.768763804674 2427.962310299421 968.1628257494897 2427.962310299421 968.1628257494897 2428.078321166668 968.5909238522597 2428.078321166668 968.5909238522597 2428.9046507248354 967.9977412118087 2428.9046507248354 967.9977412118087 2429.2339385320497 967.5994403689884 2429.2339385320497 967.5994403689884 2428.5636664866074 966.7860595550382 2428.5636664866074 966.7860595550382 2427.6960492592743 966.2115419805481 2427.6960492592743 966.2115419805481 2426.9103621644076 964.9699228874646 2426.9103621644076 964.9699228874646 2426.7144016450748 964.476406610745 2426.7144016450748 964.476406610745 2426.301193956964 963.2717793361654 2426.301193956964 963.2717793361654 2426.1615579411923 961.9662182709355 2426.1615579411923 961.9662182709355 2426.0840860579647 961.2415947743905 2426.0840860579647 961.2415947743905 2426.014445322614 960.5900500283691 2426.014445322614 960.5900500283691 2426.279280249242 960.0521949227591 2426.279280249242 960.0521949227591 2426.987132252253 959.7636651727087 2426.987132252253 959.7636651727087 2427.2660429832654 958.8578518626123 2427.2660429832654 958.8578518626123 2426.9992238303926 958.2705162033336 2426.9992238303926 958.2705162033336 2426.80846447473 957.8505240501934 2426.80846447473 957.8505240501934 2426.6177330527 957.4305246527147 2426.6177330527 957.4305246527147 2425.745401988666 957.6146288802744 2425.745401988666 957.6146288802744 2425.249347134632 957.8092470041776 2425.249347134632 957.8092470041776 2424.8261584485867 957.9967502754789 2424.8261584485867 957.9967502754789 2424.4616371916945 958.0320975383345 2424.4616371916945 958.0320975383345 2424.0758114452883 957.8498335799954 2424.0758114452883 957.8498335799954 2423.894518612578 957.5013084616332 2423.894518612578 957.5013084616332 2424.3461148800993 957.6039906838402 2424.3461148800993 957.6039906838402 2424.689288604145 957.3510651669404 2424.689288604145 957.3510651669404 2425.2511029092093 957.0768910187813 2425.2511029092093 957.0768910187813 2425.6013173117676 956.8964377771061 2425.6013173117676 956.8964377771061 2425.57284282628 956.6063297435629 2425.57284282628 956.6063297435629 2424.3124732915076 956.5089883164194 2424.3124732915076 956.5089883164194 2424.0138302909413 956.4647119884647 2424.0138302909413 956.4647119884647 2423.343667299864 956.3831652594489 2423.343667299864 956.3831652594489 2423.0592059428304 956.4838996973699 2423.0592059428304 956.4838996973699 2422.9346828472703 956.7155890925765 2422.9346828472703 956.7155890925765 2422.7909551191815 955.9973234736078 2422.7909551191815 955.9973234736078 2423.129521423715 955.8309652956337 2423.129521423715 955.8309652956337 2423.544413073132 955.6270645575574 2423.544413073132 955.6270645575574 2424.0438993227276 955.3815321529515 2424.0438993227276 955.3815321529515 2424.4354969276214 955.188991021189 2424.4354969276214 955.188991021189 2424.803842787126 955.0078475318635 2424.803842787126 955.0078475318635 2425.2048022260014 955.1044698972398 2425.2048022260014 955.1044698972398 2426.1876636399265 955.3750310104576 2426.1876636399265 955.3750310104576 2426.4419035643036 955.7163944426984 2426.4419035643036 955.7163944426984 2426.747650291666 955.8330695364439 2426.747650291666 955.8330695364439 2426.9448628767914 955.5941962664756 2426.9448628767914 955.5941962664756 2426.8291970364826 955.1661344838216 2426.8291970364826 955.1661344838216 2425.3878243875015 954.720590779321 2425.3878243875015 954.720590779321" id="i am a detail" style="fill:#f435ef" /><polygon points="2425.4984147324035 960.3477176057859 2424.5450280399923 959.6347978381112 2424.5450280399923 959.6347978381112 2422.370648863396 957.7218889518574 2422.370648863396 957.7218889518574 2421.6764697553363 955.8853041137594 2421.6764697553363 955.8853041137594 2421.344749676587 954.7458557562506 2421.344749676587 954.7458557562506 2420.930957440577 954.2732361051812 2420.930957440577 954.2732361051812 2420.437301543962 953.7350633506845 2420.437301543962 953.7350633506845 2420.0588856475515 953.6250558615575 2420.0588856475515 953.6250558615575 2419.0176734917145 953.5054988711477 2419.0176734917145 953.5054988711477 2418.6533518549486 953.5404734307361 2418.6533518549486 953.5404734307361 2418.077448211138 953.6689231076946 2418.077448211138 953.6689231076946 2417.008133789962 953.2588384383669 2417.008133789962 953.2588384383669 2416.9870831808366 953.0412151752698 2416.9870831808366 953.0412151752698 2416.858088064947 952.4678522711935 2416.858088064947 952.4678522711935 2416.587688647242 952.7133498260285 2416.587688647242 952.7133498260285 2416.5849439254916 953.4457326584953 2416.5849439254916 953.4457326584953 2417.019455110703 954.1362955620318 2417.019455110703 954.1362955620318 2416.7041362023283 954.6789224535808 2416.7041362023283 954.6789224535808 2415.29528529436 955.325871531374 2415.29528529436 955.325871531374 2414.68806098524 955.8961683731527 2414.68806098524 955.8961683731527 2414.1466305801473 956.3869216493595 2414.1466305801473 956.3869216493595 2413.625991885893 957.095249013824 2413.625991885893 957.095249013824 2413.1642055622515 957.6515195115945 2413.1642055622515 957.6515195115945 2413.9042872342543 958.4596904325183 2413.9042872342543 958.4596904325183 2414.328011749578 958.2730039818124 2414.328011749578 958.2730039818124 2414.789725835414 957.7166392962145 2414.789725835414 957.7166392962145 2414.706679975658 958.383391050234 2414.706679975658 958.383391050234 2414.4497868396843 958.7738556236444 2414.4497868396843 958.7738556236444 2413.828403851507 960.736219372772 2413.828403851507 960.736219372772 2413.765983295556 961.6205936154465 2413.765983295556 961.6205936154465 2414.360522742368 962.4425782260386 2414.360522742368 962.4425782260386 2415.017505484905 962.380105445271 2415.017505484905 962.380105445271 2415.239681040925 961.62689900261 2415.239681040925 961.62689900261 2415.4477970324924 960.7286082204229 2415.4477970324924 960.7286082204229 2415.5836412446406 961.3745224047384 2415.5836412446406 961.3745224047384 2415.0319133906373 964.0624886185764 2415.0319133906373 964.0624886185764 2415.2686337821287 964.9916722064224 2415.2686337821287 964.9916722064224 2415.9087521434903 965.5164056573852 2415.9087521434903 965.5164056573852 2416.6841642281097 965.1496414203126 2416.6841642281097 965.1496414203126 2417.302349045141 963.9192518195467 2417.302349045141 963.9192518195467 2417.5172764996532 963.0934004327403 2417.5172764996532 963.0934004327403 2417.931352523014 963.5662764853557 2417.931352523014 963.5662764853557 2417.9916112268634 964.9515336602965 2417.9916112268634 964.9515336602965 2419.1993604397226 966.0073186715792 2419.1993604397226 966.0073186715792 2419.797683439911 966.0963709871254 2419.797683439911 966.0963709871254 2420.141704125142 965.8436993343174 2420.141704125142 965.8436993343174 2420.497242015038 966.4685073380135 2420.497242015038 966.4685073380135 2421.701080519266 966.7188169498595 2421.701080519266 966.7188169498595 2422.322999623029 966.2927947893057 2422.322999623029 966.2927947893057 2422.5797052918842 965.9019379728966 2422.5797052918842 965.9019379728966 2423.258135061238 966.0561184620956 2423.258135061238 966.0561184620956 2423.498470296568 966.2525674735604 2423.498470296568 966.2525674735604 2423.7621711455217 965.9341937305636 2423.7621711455217 965.9341937305636 2423.9528237225336 965.6228716512601 2423.9528237225336 965.6228716512601 2424.798599923801 965.9803489579651 2424.798599923801 965.9803489579651 2425.3025785451696 965.8582875310296 2425.3025785451696 965.8582875310296 2425.7851525114515 965.5185829391005 2425.7851525114515 965.5185829391005 2426.333523700443 965.0992170102387 2426.333523700443 965.0992170102387 2426.5168396465388 964.7152833861342 2426.5168396465388 964.7152833861342 2426.0021760888153 963.2276065433605 2426.0021760888153 963.2276065433605 2425.731456568033 960.4715271614913 2425.731456568033 960.4715271614913 2425.4984147324035 960.3477176057859 2425.4984147324035 960.3477176057859" id="i am a detail" style="fill:#f435ef" /><polygon points="2476.614513228678 906.5174779078704 2474.460079744952 912.183174166663 2474.460079744952 912.183174166663 2463.2577213626787 917.8902283291687 2463.2577213626787 917.8902283291687 2443.9200279177558 923.4947573733338 2443.9200279177558 923.4947573733338 2449.0206671120445 929.3064787003458 2449.0206671120445 929.3064787003458 2456.2759970835405 929.4675706151636 2456.2759970835405 929.4675706151636 2464.7680391720223 1050.0543112479513 2464.7680391720223 1050.0543112479513 2458.401668453971 1059.8715835255928 2458.401668453971 1059.8715835255928 2455.8197363098006 1061.9689129291762 2455.8197363098006 1061.9689129291762 2485.8375661727014 1060.7119676720185 2485.8375661727014 1060.7119676720185 2489.6658815425026 1053.8741609044732 2489.6658815425026 1053.8741609044732 2483.8595078429917 1052.653712886536 2483.8595078429917 1052.653712886536 2476.0746053695307 910.1996512947535 2476.0746053695307 910.1996512947535 2476.614513228678 906.5174779078704 2476.614513228678 906.5174779078704" id="i am a detail" style="fill:#f435ef" /></g></svg>